<svg width="19" height="14" viewBox="0 0 19 14" fill="currentColor" xmlns="http://www.w3.org/2000/svg">
<path d="M15.5068 1.60127C14.3373 1.08994 13.0952 0.717276 11.7987 0.509277C11.6355 0.777946 11.4542 1.14194 11.3272 1.42794C9.9483 1.23727 8.5793 1.23727 7.21936 1.42794C7.09243 1.14194 6.90203 0.777946 6.7479 0.509277C5.44239 0.717276 4.20032 1.08994 3.03894 1.60127C0.690798 4.91193 0.0561614 8.14458 0.373479 11.3339C1.93286 12.4172 3.43787 13.0759 4.91656 13.5093C5.27921 13.0413 5.6056 12.5386 5.88665 12.0099C5.35174 11.8193 4.84404 11.5852 4.35446 11.3079C4.48139 11.2213 4.60832 11.1259 4.72618 11.0306C7.68176 12.3219 10.883 12.3219 13.8023 11.0306C13.9293 11.1259 14.0471 11.2213 14.1741 11.3079C13.6845 11.5852 13.1768 11.8193 12.6419 12.0099C12.9229 12.5386 13.2493 13.0413 13.6119 13.5093C15.0897 13.0759 16.6038 12.4172 18.155 11.3339C18.5448 7.64195 17.5376 4.4353 15.5068 1.60127ZM6.29462 9.36658C5.40613 9.36658 4.68083 8.59527 4.68083 7.65061C4.68083 6.70596 5.38799 5.93459 6.29462 5.93459C7.19216 5.93459 7.9265 6.70596 7.90837 7.65061C7.90837 8.59527 7.19216 9.36658 6.29462 9.36658ZM12.252 9.36658C11.3635 9.36658 10.6373 8.59527 10.6373 7.65061C10.6373 6.70596 11.3454 5.93459 12.252 5.93459C13.1496 5.93459 13.8839 6.70596 13.8658 7.65061C13.8658 8.59527 13.1587 9.36658 12.252 9.36658Z" fill="#403453"/>
</svg>
