<svg width="15" height="12" viewBox="0 0 15 12" fill="currentColor" xmlns="http://www.w3.org/2000/svg">
<path d="M6.9423 3.23546L6.97329 3.74821L6.45675 3.68543C4.57655 3.44475 2.93395 2.62853 1.53929 1.2577L0.857456 0.577523L0.681833 1.07981C0.309924 2.19949 0.547533 3.38196 1.32234 4.17725C1.73558 4.61675 1.6426 4.67954 0.929773 4.41793C0.681833 4.33422 0.464886 4.27143 0.444224 4.30282C0.371909 4.37607 0.619848 5.32833 0.816134 5.70504C1.08473 6.22826 1.63227 6.74101 2.23145 7.04448L2.73766 7.28515L2.13848 7.29562C1.55995 7.29562 1.53929 7.30608 1.60127 7.52583C1.80789 8.20601 2.62402 8.92805 3.53313 9.24198L4.17365 9.46173L3.61578 9.79659C2.78932 10.278 1.81822 10.55 0.847126 10.571C0.38224 10.5814 0 10.6233 0 10.6547C0 10.7593 1.26036 11.3453 1.99385 11.5755C4.19431 12.2557 6.808 11.9627 8.77085 10.8012C10.1655 9.97449 11.5602 8.33159 12.211 6.74101C12.5623 5.8934 12.9135 4.34468 12.9135 3.60171C12.9135 3.12035 12.9445 3.05757 13.523 2.48203C13.8639 2.14717 14.1842 1.78092 14.2462 1.67628C14.3495 1.47746 14.3392 1.47745 13.8123 1.65535C12.9342 1.96928 12.8102 1.92742 13.2441 1.45653C13.5643 1.12167 13.9466 0.514738 13.9466 0.336844C13.9466 0.305451 13.7916 0.357773 13.616 0.451952C13.43 0.556595 13.0168 0.713559 12.7069 0.807738L12.149 0.985632L11.6428 0.640309C11.3639 0.451952 10.9713 0.242665 10.7647 0.179879C10.2378 0.0333783 9.43202 0.0543069 8.95681 0.221736C7.66546 0.692631 6.84932 1.90649 6.9423 3.23546Z"/>
</svg>
