<svg width="16" height="16" viewBox="0 0 16 16" fill="currentColor" xmlns="http://www.w3.org/2000/svg">
<path d="M7.9935 1.33337C4.3135 1.33337 1.3335 4.32004 1.3335 8.00004C1.3335 11.68 4.3135 14.6667 7.9935 14.6667C11.6802 14.6667 14.6668 11.68 14.6668 8.00004C14.6668 4.32004 11.6802 1.33337 7.9935 1.33337ZM12.6135 5.33337H10.6468C10.4335 4.50004 10.1268 3.70004 9.72683 2.96004C10.9535 3.38004 11.9735 4.23337 12.6135 5.33337ZM8.00016 2.69337C8.5535 3.49337 8.98683 4.38004 9.2735 5.33337H6.72683C7.0135 4.38004 7.44683 3.49337 8.00016 2.69337ZM2.84016 9.33338C2.7335 8.90671 2.66683 8.46004 2.66683 8.00004C2.66683 7.54004 2.7335 7.09338 2.84016 6.66671H5.0935C5.04016 7.10671 5.00016 7.54671 5.00016 8.00004C5.00016 8.45338 5.04016 8.89338 5.0935 9.33338H2.84016ZM3.38683 10.6667H5.3535C5.56683 11.5 5.8735 12.3 6.2735 13.04C5.04683 12.62 4.02683 11.7734 3.38683 10.6667ZM5.3535 5.33337H3.38683C4.02683 4.22671 5.04683 3.38004 6.2735 2.96004C5.8735 3.70004 5.56683 4.50004 5.3535 5.33337ZM8.00016 13.3067C7.44683 12.5067 7.0135 11.62 6.72683 10.6667H9.2735C8.98683 11.62 8.5535 12.5067 8.00016 13.3067ZM9.56016 9.33338H6.44016C6.38016 8.89338 6.3335 8.45338 6.3335 8.00004C6.3335 7.54671 6.38016 7.10004 6.44016 6.66671H9.56016C9.62016 7.10004 9.66683 7.54671 9.66683 8.00004C9.66683 8.45338 9.62016 8.89338 9.56016 9.33338ZM9.72683 13.04C10.1268 12.3 10.4335 11.5 10.6468 10.6667H12.6135C11.9735 11.7667 10.9535 12.62 9.72683 13.04ZM10.9068 9.33338C10.9602 8.89338 11.0002 8.45338 11.0002 8.00004C11.0002 7.54671 10.9602 7.10671 10.9068 6.66671H13.1602C13.2668 7.09338 13.3335 7.54004 13.3335 8.00004C13.3335 8.46004 13.2668 8.90671 13.1602 9.33338H10.9068Z" fill="currentColor"/>
</svg>
