<svg width="42" height="42" viewBox="0 0 42 42" fill="none" xmlns="http://www.w3.org/2000/svg">
<path d="M19.8464 33.2787L9.79287 27.5338L13.1264 25.6289L11.4795 24.6951L6.51172 27.5338L19.8464 35.1536L33.1812 27.5338L28.2134 24.6951L26.5664 25.6289L29.9 27.5338L19.8464 33.2787Z" fill="#FF497A"/>
<path d="M25.3992 23.1676C25.3992 26.2129 22.9304 28.6816 19.8851 28.6816C16.8398 28.6816 14.3711 26.2129 14.3711 23.1676C14.3711 20.1223 16.8398 17.6536 19.8851 17.6536C22.9304 17.6536 25.3992 20.1223 25.3992 23.1676Z" fill="#FF497A"/>
<path d="M35.1781 17.7442C35.1781 19.4525 33.7934 20.8372 32.0851 20.8372C30.3769 20.8372 28.9921 19.4525 28.9921 17.7442C28.9921 16.036 30.3769 14.6512 32.0851 14.6512C33.7934 14.6512 35.1781 16.036 35.1781 17.7442Z" fill="#FF497A"/>
<path d="M16.7206 10.5815C16.7206 12.8292 14.8985 14.6513 12.6508 14.6513C10.4032 14.6513 8.58105 12.8292 8.58105 10.5815C8.58105 8.33382 10.4032 6.51172 12.6508 6.51172C14.8985 6.51172 16.7206 8.33382 16.7206 10.5815Z" fill="#FF497A"/>
<path fill-rule="evenodd" clip-rule="evenodd" d="M20.1087 22.0745L13.513 10.3966L12.0956 11.1972L19.421 24.167L32.1958 18.4381L31.5297 16.9527L20.1087 22.0745Z" fill="#FF497A"/>
</svg>
