<svg width="42" height="42" viewBox="0 0 42 42" fill="none" xmlns="http://www.w3.org/2000/svg">
<path d="M17.3231 23.5676C16.9957 23.7968 16.7011 24.0914 16.5702 24.4843C16.2101 25.4009 17.1267 27.6924 17.1267 27.6924C17.1267 27.6924 19.4837 26.4812 19.8438 25.5646C20.0075 25.2045 20.0075 24.7789 19.9093 24.4188" fill="#98979B"/>
<path fill-rule="evenodd" clip-rule="evenodd" d="M24.7829 14.6235L24.9422 14.0983C25.7077 11.7347 25.5228 9.2482 24.3911 7.06442C24.3581 7.03197 24.3578 6.99923 24.3248 6.96678C24.2918 6.93432 24.259 6.9346 24.226 6.90214L24.0951 6.90326C24.0623 6.90354 24.0296 6.90382 23.9644 6.93711C22.8889 7.50283 21.946 8.26385 21.1354 9.18742C20.3576 10.1107 19.7445 11.1635 19.3945 12.3451L19.2028 12.9033L18.1673 16.2537C18.0654 16.5834 17.7151 16.7674 17.3858 16.6643C17.0575 16.5614 16.8747 16.2118 16.9776 15.8835L17.517 14.1617L13.4691 16.1932C13.4039 16.2265 13.339 16.2926 13.3395 16.358L12.7662 18.229C12.7668 18.2944 12.7676 18.3926 12.8009 18.4578C12.8342 18.523 12.9002 18.5879 12.9987 18.6198L16.3799 19.7041L15.9975 20.9186C15.9653 20.9844 15.9661 21.0826 16.0321 21.1475C16.0654 21.2127 16.1315 21.2776 16.23 21.3095L22.4673 23.3188C22.533 23.3509 22.6312 23.3501 22.6961 23.2841C22.7613 23.2508 22.8262 23.1848 22.8581 23.0863L23.2406 21.8717L26.5564 22.9565C26.6222 22.9887 26.7204 22.9878 26.7853 22.9218C26.8505 22.8885 26.9154 22.8225 26.9473 22.724L27.5214 20.9513C27.5536 20.8855 27.5528 20.7873 27.5195 20.7221L25.4552 16.6489L24.9165 18.3681C24.8132 18.6978 24.4621 18.8814 24.1324 18.7781C23.8023 18.6747 23.6188 18.3231 23.7226 17.9932L24.7829 14.6235ZM23.4179 11.9507C23.1182 11.3639 22.4288 11.1406 21.8749 11.44C21.3209 11.7394 21.0976 12.4288 21.3642 12.983C21.6639 13.5698 22.3533 13.7931 22.9073 13.4937C23.494 13.194 23.7173 12.5046 23.4179 11.9507Z" fill="#98979B"/>
<path d="M20.9371 32.9744L10.8284 27.198L14.1803 25.2827L12.5243 24.3438L7.5293 27.198L20.9371 34.8596L34.3449 27.198L29.3499 24.3438L27.6939 25.2827L31.0458 27.198L20.9371 32.9744Z" fill="#98979B"/>
</svg>
