<svg width="42" height="42" viewBox="0 0 42 42" fill="none" xmlns="http://www.w3.org/2000/svg">
<path d="M20.9371 31.7349L10.8284 25.9585L14.1803 24.0432L12.5243 23.1042L7.5293 25.9585L20.9371 33.6201L34.3449 25.9585L29.3499 23.1042L27.6939 24.0432L31.0458 25.9585L20.9371 31.7349Z" fill="#98979B"/>
<path fill-rule="evenodd" clip-rule="evenodd" d="M23.6096 12.6064L23.6983 12.4845L23.6998 12.483L26.852 8.18408L30.0945 12.6064C30.5411 13.2192 30.815 13.9407 30.8874 14.6955C30.9599 15.4504 30.8282 16.2108 30.5063 16.8974C30.2143 17.5493 29.7503 18.1094 29.164 18.5175C28.5778 18.9256 27.8915 19.1663 27.1787 19.2138C26.961 19.2286 26.7424 19.2286 26.5246 19.2138C25.812 19.1662 25.1259 18.9254 24.5398 18.5173C23.9537 18.1092 23.4897 17.5492 23.1978 16.8974C22.8758 16.2109 22.744 15.4505 22.8163 14.6956C22.8886 13.9408 23.1624 13.2192 23.6089 12.6064H23.6096ZM26.8519 18.6701C26.7595 18.6701 26.668 18.6665 26.5778 18.6607C25.654 18.5876 24.7935 18.1624 24.1744 17.4729C23.5552 16.7834 23.2246 15.8823 23.251 14.956C23.2542 14.7668 23.3316 14.5865 23.4665 14.4539C23.6014 14.3213 23.783 14.247 23.9722 14.2471H23.9837C24.0785 14.2486 24.172 14.2687 24.259 14.3064C24.346 14.3441 24.4247 14.3986 24.4906 14.4667C24.5565 14.5348 24.6083 14.6152 24.6431 14.7034C24.6779 14.7916 24.695 14.8857 24.6934 14.9805C24.6744 15.5365 24.869 16.0786 25.2374 16.4954C25.6057 16.9123 26.1197 17.1723 26.6737 17.2219C26.7314 17.2255 26.792 17.2277 26.8519 17.2277C27.0431 17.2277 27.2266 17.3037 27.3618 17.4389C27.4971 17.5742 27.573 17.7576 27.573 17.9489C27.573 18.1401 27.4971 18.3236 27.3618 18.4588C27.2266 18.5941 27.0431 18.6701 26.8519 18.6701Z" fill="#98979B"/>
<path fill-rule="evenodd" clip-rule="evenodd" d="M15.844 15.7846L20.3614 9.62644L22.2026 12.1376C21.7104 12.9367 21.4242 13.8454 21.3696 14.7824C21.3149 15.7193 21.4936 16.6552 21.8896 17.506C22.2495 18.302 22.7987 18.9978 23.4894 19.5327C24.18 20.0676 24.9911 20.4253 25.8518 20.5747C25.6126 21.7569 24.9923 22.8281 24.0859 23.6239C23.1795 24.4197 22.037 24.8962 20.8338 24.9804C20.523 24.9948 20.1833 24.9933 19.9057 24.9811C18.9128 24.9141 17.957 24.5782 17.1404 24.0094C16.3239 23.4406 15.6776 22.6604 15.2706 21.7524C14.8236 20.7974 14.641 19.74 14.7419 18.6905C14.8427 17.6409 15.2233 16.6377 15.844 15.7853V15.7846ZM20.3612 23.7738C20.2437 23.7738 20.1269 23.7688 20.0115 23.7616C18.8416 23.6683 17.7522 23.1291 16.9685 22.2555C16.1848 21.3819 15.7667 20.2406 15.8005 19.0674C15.8035 18.8782 15.8809 18.6977 16.0158 18.5649C16.1507 18.4322 16.3324 18.3578 16.5217 18.3578H16.5332C16.6279 18.3593 16.7214 18.3794 16.8083 18.4171C16.8953 18.4547 16.9739 18.5091 17.0398 18.5771C17.1057 18.6452 17.1576 18.7255 17.1924 18.8136C17.2273 18.9017 17.2444 18.9958 17.2429 19.0905C17.2165 19.8934 17.4988 20.6758 18.0316 21.277C18.5643 21.8782 19.3072 22.2524 20.1074 22.3228C20.1915 22.3286 20.2761 22.3315 20.3612 22.3315C20.5525 22.3315 20.736 22.4075 20.8712 22.5427C21.0064 22.678 21.0824 22.8614 21.0824 23.0527C21.0824 23.2439 21.0064 23.4274 20.8712 23.5626C20.736 23.6979 20.5525 23.7738 20.3612 23.7738Z" fill="#98979B"/>
</svg>
