<svg width="42" height="42" viewBox="0 0 42 42" fill="none" xmlns="http://www.w3.org/2000/svg">
<path d="M20.9371 33.0357L10.8284 27.2593L14.1803 25.344L12.5243 24.405L7.5293 27.2593L20.9371 34.9209L34.3449 27.2593L29.3499 24.405L27.6939 25.344L31.0458 27.2593L20.9371 33.0357Z" fill="#98979B"/>
<path fill-rule="evenodd" clip-rule="evenodd" d="M30.0918 17.9133L20.3146 27.8457L14.7173 22.1597L16.7157 20.1925L20.3146 23.8485L28.0934 15.9461L30.0918 17.9133Z" fill="#98979B"/>
<path fill-rule="evenodd" clip-rule="evenodd" d="M30.0918 9.63226L20.3146 19.5647L14.7173 13.8786L16.7157 11.9115L20.3146 15.5674L28.0934 7.6651L30.0918 9.63226Z" fill="#98979B"/>
<path fill-rule="evenodd" clip-rule="evenodd" d="M30.5548 17.9096L20.3146 28.3124L14.2544 22.156L16.7194 19.7295L20.3146 23.3818L28.0898 15.4832L30.5548 17.9096ZM28.0934 15.9461L30.0918 17.9133L20.3146 27.8457L14.7173 22.1597L16.7157 20.1925L20.3146 23.8485L28.0934 15.9461ZM30.5548 9.62862L20.3146 20.0314L14.2544 13.875L16.7194 11.4485L20.3146 15.1008L28.0898 7.20215L30.5548 9.62862ZM20.3146 15.5674L16.7157 11.9115L14.7173 13.8786L20.3146 19.5647L30.0918 9.63226L28.0934 7.6651L20.3146 15.5674Z" fill="#98979B"/>
</svg>
