<svg width="115" height="22" viewBox="0 0 115 22" fill="none" xmlns="http://www.w3.org/2000/svg">
<path d="M18.2216 12.9091C22.7743 13.5851 25.9509 15.1142 25.9509 16.8922C25.9509 19.2966 20.1416 21.2458 12.9754 21.2458C5.8093 21.2458 0 19.2966 0 16.8922C0 15.1142 3.17653 13.5851 7.7293 12.9091C9.29305 13.2284 11.079 13.4093 12.9754 13.4093C14.8243 13.4093 16.5681 13.2373 18.1036 12.933L18.2216 12.9091Z" fill="#DCDAE5"/>
<path d="M16.2595 5.75061C20.383 6.21165 23.3559 7.51716 23.3559 9.05564C23.3559 10.9792 18.7085 12.5386 12.9756 12.5386C7.24266 12.5386 2.59521 10.9792 2.59521 9.05564C2.59521 7.51716 5.56817 6.21165 9.69164 5.75061C10.7016 5.91646 11.8112 6.00809 12.9756 6.00809C14.0992 6.00809 15.1718 5.92276 16.1531 5.7678L16.2595 5.75061Z" fill="#DCDAE5"/>
<ellipse cx="12.9754" cy="2.69923" rx="7.78526" ry="2.61219" fill="#DCDAE5"/>
<path d="M38.2866 17V2.78125H43.1396C44.741 2.78125 45.9599 3.10352 46.7963 3.74805C47.6327 4.39258 48.0508 5.35286 48.0508 6.62891C48.0508 7.27995 47.8758 7.86589 47.5257 8.38672C47.1756 8.90755 46.6634 9.3112 45.9891 9.59766C46.7541 9.80599 47.3441 10.1999 47.7591 10.7793C48.1805 11.3522 48.3912 12.0423 48.3912 12.8496C48.3912 14.1842 47.9633 15.2096 47.1075 15.9258C46.2581 16.6419 45.0392 17 43.4508 17H38.2866ZM40.7471 10.584V15.0273H43.4799C44.2515 15.0273 44.8545 14.8353 45.2889 14.4512C45.7233 14.0671 45.9405 13.5332 45.9405 12.8496C45.9405 11.3717 45.1884 10.6165 43.6842 10.584H40.7471ZM40.7471 8.76758H43.159C43.9241 8.76758 44.5206 8.59505 44.9485 8.25C45.3829 7.89844 45.6001 7.40365 45.6001 6.76562C45.6001 6.0625 45.3991 5.55469 44.9971 5.24219C44.6016 4.92969 43.9824 4.77344 43.1396 4.77344H40.7471V8.76758Z" fill="#DCDAE5"/>
<path d="M56.9106 17C56.8069 16.7982 56.7161 16.4694 56.6383 16.0137C55.8862 16.8014 54.9655 17.1953 53.8763 17.1953C52.8195 17.1953 51.9572 16.8926 51.2894 16.2871C50.6216 15.6816 50.2877 14.9329 50.2877 14.041C50.2877 12.9147 50.7026 12.0521 51.5325 11.4531C52.3689 10.8477 53.5619 10.5449 55.1114 10.5449H56.5605V9.85156C56.5605 9.30469 56.4081 8.86849 56.1034 8.54297C55.7987 8.21094 55.3351 8.04492 54.7127 8.04492C54.1746 8.04492 53.7337 8.18164 53.39 8.45508C53.0464 8.72201 52.8746 9.0638 52.8746 9.48047H50.5114C50.5114 8.90104 50.7026 8.36068 51.0851 7.85938C51.4677 7.35156 51.9864 6.95443 52.6412 6.66797C53.3025 6.38151 54.0384 6.23828 54.8488 6.23828C56.0807 6.23828 57.063 6.55078 57.7956 7.17578C58.5283 7.79427 58.9043 8.66667 58.9238 9.79297V14.5586C58.9238 15.5091 59.0567 16.2676 59.3225 16.834V17H56.9106ZM54.314 15.291C54.7808 15.291 55.2184 15.1771 55.6269 14.9492C56.0418 14.7214 56.353 14.4154 56.5605 14.0312V12.0391H55.2865C54.4112 12.0391 53.7531 12.1921 53.3122 12.498C52.8714 12.804 52.6509 13.237 52.6509 13.7969C52.6509 14.2526 52.8 14.6172 53.0983 14.8906C53.403 15.1576 53.8082 15.291 54.314 15.291Z" fill="#DCDAE5"/>
<path d="M63.9128 17H61.5496V2H63.9128V17Z" fill="#DCDAE5"/>
<path d="M72.7823 17C72.6786 16.7982 72.5878 16.4694 72.51 16.0137C71.7579 16.8014 70.8373 17.1953 69.748 17.1953C68.6912 17.1953 67.8289 16.8926 67.1611 16.2871C66.4933 15.6816 66.1594 14.9329 66.1594 14.041C66.1594 12.9147 66.5743 12.0521 67.4042 11.4531C68.2406 10.8477 69.4336 10.5449 70.9832 10.5449H72.4322V9.85156C72.4322 9.30469 72.2799 8.86849 71.9751 8.54297C71.6704 8.21094 71.2068 8.04492 70.5844 8.04492C70.0463 8.04492 69.6054 8.18164 69.2618 8.45508C68.9181 8.72201 68.7463 9.0638 68.7463 9.48047H66.3831C66.3831 8.90104 66.5743 8.36068 66.9569 7.85938C67.3394 7.35156 67.8581 6.95443 68.5129 6.66797C69.1742 6.38151 69.9101 6.23828 70.7206 6.23828C71.9524 6.23828 72.9347 6.55078 73.6673 7.17578C74.4 7.79427 74.776 8.66667 74.7955 9.79297V14.5586C74.7955 15.5091 74.9284 16.2676 75.1942 16.834V17H72.7823ZM70.1857 15.291C70.6525 15.291 71.0901 15.1771 71.4986 14.9492C71.9135 14.7214 72.2248 14.4154 72.4322 14.0312V12.0391H71.1582C70.2829 12.0391 69.6249 12.1921 69.184 12.498C68.7431 12.804 68.5227 13.237 68.5227 13.7969C68.5227 14.2526 68.6718 14.6172 68.97 14.8906C69.2747 15.1576 69.68 15.291 70.1857 15.291Z" fill="#DCDAE5"/>
<path d="M79.4636 6.43359L79.5317 7.6543C80.3097 6.71029 81.3309 6.23828 82.5952 6.23828C84.7866 6.23828 85.9018 7.49805 85.9407 10.0176V17H83.5774V10.1543C83.5774 9.48372 83.4316 8.98893 83.1398 8.66992C82.8545 8.3444 82.3845 8.18164 81.7296 8.18164C80.7766 8.18164 80.0666 8.61458 79.5998 9.48047V17H77.2365V6.43359H79.4636Z" fill="#DCDAE5"/>
<path d="M92.6804 15.3008C93.2704 15.3008 93.7599 15.1283 94.1489 14.7832C94.5379 14.4382 94.7454 14.0117 94.7713 13.5039H96.9984C96.9725 14.1615 96.7682 14.7767 96.3857 15.3496C96.0032 15.916 95.4845 16.3652 94.8297 16.6973C94.1748 17.0293 93.4681 17.1953 92.7095 17.1953C91.2378 17.1953 90.0707 16.7168 89.2084 15.7598C88.3461 14.8027 87.9149 13.4811 87.9149 11.7949V11.5508C87.9149 9.94271 88.3429 8.6569 89.1987 7.69336C90.0545 6.72331 91.2216 6.23828 92.6998 6.23828C93.9511 6.23828 94.969 6.60612 95.7536 7.3418C96.5445 8.07096 96.9595 9.03125 96.9984 10.2227H94.7713C94.7454 9.61719 94.5379 9.11914 94.1489 8.72852C93.7663 8.33789 93.2768 8.14258 92.6804 8.14258C91.9153 8.14258 91.3253 8.42253 90.9103 8.98242C90.4954 9.53581 90.2847 10.3789 90.2782 11.5117V11.8926C90.2782 13.0384 90.4824 13.8945 90.8909 14.4609C91.3058 15.0208 91.9023 15.3008 92.6804 15.3008Z" fill="#DCDAE5"/>
<path d="M103.417 17.1953C101.919 17.1953 100.704 16.7233 99.7701 15.7793C98.843 14.8288 98.3794 13.5658 98.3794 11.9902V11.6973C98.3794 10.6426 98.5804 9.70182 98.9824 8.875C99.3908 8.04167 99.9614 7.39388 100.694 6.93164C101.427 6.4694 102.244 6.23828 103.145 6.23828C104.578 6.23828 105.683 6.69727 106.461 7.61523C107.246 8.5332 107.638 9.83203 107.638 11.5117V12.4688H100.762C100.833 13.3411 101.122 14.0312 101.628 14.5391C102.14 15.0469 102.782 15.3008 103.553 15.3008C104.636 15.3008 105.518 14.8613 106.199 13.9824L107.473 15.2031C107.051 15.8346 106.487 16.3262 105.78 16.6777C105.08 17.0228 104.292 17.1953 103.417 17.1953ZM103.135 8.14258C102.487 8.14258 101.962 8.37044 101.56 8.82617C101.164 9.2819 100.911 9.91667 100.801 10.7305H105.304V10.5547C105.252 9.76042 105.041 9.16146 104.672 8.75781C104.302 8.34766 103.79 8.14258 103.135 8.14258Z" fill="#DCDAE5"/>
<path d="M114.99 8.60156C114.679 8.54948 114.358 8.52344 114.027 8.52344C112.945 8.52344 112.215 8.9401 111.839 9.77344V17H109.476V6.43359H111.732L111.791 7.61523C112.361 6.69727 113.152 6.23828 114.164 6.23828C114.501 6.23828 114.78 6.28385 115 6.375L114.99 8.60156Z" fill="#DCDAE5"/>
</svg>
