<svg width="26" height="25" viewBox="0 0 26 25" fill="none" xmlns="http://www.w3.org/2000/svg">
<circle cx="12" cy="12.8086" r="13" fill="#8767FD" stroke="#1B1722" stroke-width="2"/>
<mask id="mask0_6432_52485" style="mask-type:alpha" maskUnits="userSpaceOnUse" x="0" y="0" width="24" height="25">
<circle cx="12" cy="12.8086" r="12" fill="white"/>
</mask>
<g mask="url(#mask0_6432_52485)">
<circle cx="12" cy="12.8086" r="12.75" fill="url(#paint0_linear_6432_52485)"/>
</g>
<path d="M8.40122 10.576C7.92947 11.047 6.71297 10.156 6.35672 10.837C6.00122 11.5188 5.40122 13.8115 4.44572 13.9488C4.32122 13.966 4.27847 14.0305 4.29122 14.1115C4.35122 14.4715 5.40947 15.1233 6.77297 13.8715C8.07122 12.676 8.76122 11.7115 8.76122 11.7115L8.40122 10.576Z" fill="url(#paint1_linear_6432_52485)"/>
<path d="M8.01147 10.9143L8.34972 12.0071L7.96422 12.6633C7.87872 12.7571 7.78872 12.8561 7.68972 12.9588L7.41147 12.8943C7.33872 11.7633 6.76872 10.7561 6.41322 11.6298C6.21597 12.1233 5.56872 13.1088 5.56872 13.1088L5.32422 13.1688C5.79147 12.3971 6.18972 11.3816 6.42147 10.9398C6.70422 10.3961 7.44972 10.9533 8.01147 10.9143Z" fill="url(#paint2_linear_6432_52485)"/>
<path d="M8.16822 12.4828C7.76547 10.0866 6.53997 10.5103 6.35547 10.8328C6.71097 10.1503 7.92822 11.0428 8.39997 10.5703L8.75547 11.7066C8.75547 11.7066 8.56722 12.1311 8.18997 12.6921C8.18997 12.6283 8.18097 12.5556 8.16822 12.4821V12.4828Z" fill="url(#paint3_linear_6432_52485)"/>
<path d="M8.16812 12.4831C8.18162 12.5558 8.18987 12.6241 8.19437 12.6968C8.15987 12.7441 8.12987 12.7913 8.09537 12.8431L7.94987 12.5513C7.78262 11.9558 7.71437 11.0603 6.96812 10.8413C6.02162 10.5676 6.09812 13.8368 4.29812 14.1368C4.26812 14.0393 4.31162 13.9658 4.44437 13.9441C5.39987 13.8076 5.99987 11.5111 6.35537 10.8331C6.53987 10.5158 7.76537 10.0913 8.16812 12.4831Z" fill="url(#paint4_linear_6432_52485)"/>
<path d="M10.2243 5.39453C8.8361 5.39453 7.6361 8.51903 8.36435 12.4835C9.09335 16.4473 11.9516 12.8473 11.9516 12.8473C11.9516 12.8473 11.2316 11.0218 11.3178 7.01078C11.3433 5.88353 10.6878 5.39453 10.2243 5.39453Z" fill="url(#paint5_radial_6432_52485)"/>
<path d="M10.2243 5.39453C8.8361 5.39453 7.6361 8.51903 8.36435 12.4835C9.09335 16.4473 11.9516 12.8473 11.9516 12.8473C11.9516 12.8473 11.2316 11.0218 11.3178 7.01078C11.3433 5.88353 10.6878 5.39453 10.2243 5.39453Z" fill="url(#paint6_linear_6432_52485)"/>
<path opacity="0.5" d="M10.4924 13.379H10.4961C10.5006 13.3752 10.5051 13.3707 10.5006 13.3617C9.31788 10.7435 9.64338 7.34146 10.1624 6.17146C10.1661 6.16696 10.1624 6.15871 10.1579 6.15421C10.1534 6.14971 10.1451 6.15421 10.1406 6.15871C9.62238 7.33246 9.29613 10.7442 10.4789 13.367C10.4834 13.3752 10.4879 13.3797 10.4924 13.3797V13.379Z" fill="#D6B58C"/>
<path opacity="0.5" d="M9.64889 13.8458H9.65339C9.65714 13.8413 9.66164 13.8375 9.65714 13.8285C8.91614 12.2168 8.79614 10.554 8.82164 9.44404C8.84339 8.49304 9.01889 7.20304 9.35714 6.47029C9.36164 6.46579 9.35714 6.45754 9.35339 6.45304C9.34889 6.44854 9.33989 6.45304 9.33614 6.45754C9.10889 6.95029 8.82989 8.02579 8.79614 9.44029C8.76989 10.554 8.89439 12.2168 9.63614 13.8368C9.63989 13.8458 9.64439 13.8458 9.64889 13.8458ZM11.5516 13.7385C11.5516 13.7385 11.5561 13.7385 11.5516 13.7385C11.5606 13.734 11.5644 13.7303 11.5644 13.7213C10.2789 9.94579 10.4716 8.57404 10.6141 7.57579C10.6614 7.23754 10.7041 6.94129 10.6786 6.60754C10.6786 6.60304 10.6741 6.59404 10.6651 6.59404C10.6569 6.59404 10.6524 6.59854 10.6524 6.60754C10.6786 6.93754 10.6351 7.22854 10.5886 7.56754C10.4461 8.57029 10.2541 9.94129 11.5396 13.7213C11.5441 13.734 11.5486 13.7385 11.5524 13.7385H11.5516Z" fill="#D6B58C"/>
<path d="M10.2243 5.39453C8.8361 5.39453 7.6361 8.51903 8.36435 12.4835C9.09335 16.4473 11.9516 12.8473 11.9516 12.8473C11.9516 12.8473 11.2316 11.0218 11.3178 7.01078C11.3433 5.88353 10.6878 5.39453 10.2243 5.39453Z" fill="url(#paint7_linear_6432_52485)"/>
<path d="M9.44102 13.0739C10.3545 12.5512 10.761 13.2029 10.761 13.2029C10.7873 12.9794 10.83 12.7739 10.881 12.5857C11.6273 11.9129 12.6555 11.2394 13.521 11.8012C12.861 11.6212 12.5355 12.0239 12.5355 12.3539C12.5355 15.0539 17.961 17.5357 18.5445 17.9467C18.981 18.2557 19.251 18.9194 19.5645 19.1384C19.881 19.3567 19.6373 19.9267 19.371 19.8929C19.0928 19.8539 17.91 20.1839 17.3055 20.1839C16.701 20.1839 11.3445 19.6229 8.81102 14.5484C8.81102 14.5484 8.73452 13.4812 9.44102 13.0739Z" fill="url(#paint8_linear_6432_52485)"/>
<path d="M17.7177 18.4314C17.7177 18.4314 18.3987 18.5514 18.6649 19.1859C18.9304 19.8204 19.0759 19.8414 19.3714 19.8931C19.0932 19.8541 17.9104 20.1841 17.3059 20.1841C16.7014 20.1841 11.3449 19.6231 8.81141 14.5486C8.81141 14.5486 8.73041 13.4776 9.43766 13.0741C10.3504 12.5514 10.7577 13.2031 10.7577 13.2031C11.3659 14.6386 13.1449 17.1931 17.7177 18.4314Z" fill="url(#paint9_linear_6432_52485)"/>
<path d="M8.91406 14.7412C12.8823 20.184 17.3051 20.184 19.0113 19.7557C19.1178 19.8457 19.2251 19.863 19.3713 19.8885C19.0923 19.8502 17.9096 20.1802 17.3051 20.1802C16.7013 20.184 11.4813 19.6357 8.91406 14.7412Z" fill="url(#paint10_linear_6432_52485)"/>
<path d="M9.44102 13.0739C10.3545 12.5512 10.761 13.2029 10.761 13.2029C10.7873 12.9794 10.83 12.7739 10.881 12.5857C11.6273 11.9129 12.6555 11.2394 13.521 11.8012C12.861 11.6212 12.5355 12.0239 12.5355 12.3539C12.5355 15.0539 17.961 17.5357 18.5445 17.9467C18.981 18.2557 19.251 18.9194 19.5645 19.1384C19.881 19.3567 19.6373 19.9267 19.371 19.8929C19.0928 19.8539 17.91 20.1839 17.3055 20.1839C16.701 20.1839 11.3445 19.6229 8.81102 14.5484C8.81102 14.5484 8.73452 13.4812 9.44102 13.0739Z" fill="url(#paint11_linear_6432_52485)"/>
<path d="M19.2454 19.2843C19.3137 19.0488 19.5537 19.1298 19.5627 19.1388C19.8799 19.3571 19.6354 19.9271 19.3692 19.8933C19.3527 19.8888 19.1164 19.7298 19.2454 19.2843Z" fill="url(#paint12_linear_6432_52485)"/>
<path d="M10.9946 12.9673C10.8319 13.13 11.0119 12.6635 11.1319 12.3718C11.2864 12.2473 11.4491 12.1228 11.6164 12.0163L12.7991 11.5918C12.8591 11.5918 12.9191 11.5918 12.9791 11.6L13.2491 11.6645C13.3436 11.699 13.4374 11.7418 13.5274 11.8018C12.8674 11.6218 12.5419 12.0245 12.5419 12.3545C12.5419 12.419 12.5464 12.479 12.5501 12.5435C11.8691 12.3545 11.1664 12.8 10.9946 12.9673Z" fill="url(#paint13_linear_6432_52485)"/>
<path d="M9.35205 13.0315C8.6958 13.3525 8.81205 14.5487 8.81205 14.5487C8.6748 15.9115 7.5558 19.2025 6.5358 19.0142C5.5158 18.826 6.6903 17.1887 6.3558 15.5515C6.04755 14.026 6.3903 12.3242 7.7358 12.3242C8.68755 12.3242 9.50205 12.5687 10.1103 12.847C10.1103 12.8515 9.7458 12.8387 9.35205 13.0315Z" fill="url(#paint14_radial_6432_52485)"/>
<path d="M13.2523 11.4192C14.8378 11.4709 16.7923 14.0809 17.4433 13.7164C17.4306 13.8154 17.3923 13.8882 17.3233 13.9309C16.5996 14.3892 15.3906 12.6754 13.8396 11.9209C13.5996 11.8054 13.3933 11.7582 13.2178 11.7537H13.2133C10.5523 11.7537 10.9633 13.6354 10.9633 13.6354L10.7578 13.1982C10.7623 12.8464 10.8396 11.3382 13.2523 11.4192Z" fill="url(#paint15_linear_6432_52485)"/>
<path d="M13.1199 11.4491C11.9199 11.4491 11.2337 11.9036 10.9727 12.3191C11.5599 10.8109 12.8537 10.3091 14.1527 10.4036C15.9692 10.5409 17.5682 12.9064 17.4437 13.7164C16.6809 14.2946 14.8764 11.4491 13.1192 11.4491H13.1199Z" fill="url(#paint16_linear_6432_52485)"/>
<path opacity="0.5" d="M6.58306 17.7712C6.58756 17.7712 6.59581 17.7667 6.59581 17.7622C6.60031 17.7494 6.86206 16.4084 6.80581 15.1822C6.75856 14.1622 7.01206 13.2884 7.48756 12.8422C7.78756 12.5594 8.16856 12.4394 8.62756 12.4867C8.63581 12.4867 8.64031 12.4822 8.64031 12.4739C8.64031 12.4649 8.63581 12.4612 8.62756 12.4612C8.16481 12.4139 7.77481 12.5339 7.47031 12.8212C6.98581 13.2794 6.73306 14.1367 6.78031 15.1784C6.83581 16.3994 6.57031 17.7412 6.57031 17.7539C6.57031 17.7622 6.57481 17.7712 6.58306 17.7712Z" fill="#D6B58C"/>
<path opacity="0.5" d="M7.10283 17.3982C7.10658 17.3982 7.11108 17.3937 7.11558 17.3892C7.12008 17.3765 7.57008 15.9792 7.52283 14.951C7.48383 14.1147 7.69833 13.4382 8.13108 13.0437C8.47383 12.7265 8.95008 12.602 9.50283 12.6792C9.51108 12.6792 9.51558 12.6747 9.51558 12.671C9.51558 12.662 9.51108 12.6582 9.50658 12.6582C8.94558 12.581 8.46558 12.7092 8.11833 13.031C7.68108 13.4292 7.46283 14.1147 7.50108 14.9592C7.54833 15.9837 7.10283 17.372 7.09833 17.3892C7.09008 17.3892 7.09383 17.3937 7.10283 17.3982ZM16.8183 13.3092C16.8228 13.3092 16.8228 13.3092 16.8266 13.3047C16.8311 13.301 16.8311 13.292 16.8266 13.2875C16.1883 12.581 15.4301 11.792 14.5511 11.372C13.5183 10.8792 12.5156 10.9737 11.4783 11.6637C11.4738 11.6675 11.4701 11.6765 11.4738 11.681C11.4783 11.6847 11.4866 11.6892 11.4911 11.6847C12.5201 10.9992 13.5183 10.9047 14.5428 11.3975C15.4166 11.8175 16.1711 12.602 16.8101 13.3047C16.8101 13.3092 16.8138 13.3092 16.8183 13.3092Z" fill="#D6B58C"/>
<path opacity="0.5" d="M16.5997 12.7091H16.6034C16.6079 12.7054 16.6124 12.6964 16.6079 12.6919C16.2434 12.1046 15.6224 11.3209 14.7052 10.9309C13.8224 10.5536 12.8879 10.6309 11.9279 11.1664C11.9234 11.1709 11.9197 11.1746 11.9234 11.1836C11.9279 11.1881 11.9369 11.1919 11.9407 11.1881C12.8924 10.6564 13.8224 10.5791 14.6969 10.9519C15.6052 11.3419 16.2269 12.1181 16.5869 12.7054C16.5907 12.7054 16.5952 12.7091 16.5997 12.7091Z" fill="#D6B58C"/>
<path d="M8.61003 14.0084C8.76003 12.5939 10.2473 12.3194 10.7573 13.1984C10.7318 13.1594 10.3245 12.5639 9.43728 13.0739C9.39453 13.0957 9.36003 13.1212 9.32178 13.1512C8.73903 13.6012 8.80728 14.5484 8.80728 14.5484C8.67003 15.9112 7.55178 19.2022 6.53178 19.0139C6.48003 19.0049 6.43278 18.9884 6.39453 18.9667C7.44903 18.8084 8.41728 15.8594 8.61003 14.0084Z" fill="url(#paint17_linear_6432_52485)"/>
<path d="M9.44102 13.0739C10.3545 12.5512 10.761 13.2029 10.761 13.2029C10.7873 12.9794 10.83 12.7739 10.881 12.5857C11.6273 11.9129 12.6555 11.2394 13.521 11.8012C12.861 11.6212 12.5355 12.0239 12.5355 12.3539C12.5355 15.0539 17.961 17.5357 18.5445 17.9467C18.981 18.2557 19.251 18.9194 19.5645 19.1384C19.881 19.3567 19.6373 19.9267 19.371 19.8929C19.0928 19.8539 17.91 20.1839 17.3055 20.1839C16.701 20.1839 11.3445 19.6229 8.81102 14.5484C8.81102 14.5484 8.73452 13.4812 9.44102 13.0739Z" fill="url(#paint18_radial_6432_52485)"/>
<path d="M9.44102 13.0741C10.3545 12.5514 10.761 13.2031 10.761 13.2031C10.7828 13.2541 10.941 13.5841 10.9673 13.6404C9.75452 13.0269 9.08552 14.1676 8.99552 14.9004C8.93102 14.7841 8.87102 14.6731 8.81102 14.5531C8.81102 14.5486 8.73452 13.4814 9.44102 13.0741Z" fill="url(#paint19_linear_6432_52485)"/>
<path d="M9.44102 13.0739C10.3545 12.5512 10.761 13.2029 10.761 13.2029C10.7873 12.9794 10.83 12.7739 10.881 12.5857C11.6273 11.9129 12.6555 11.2394 13.521 11.8012C12.861 11.6212 12.5355 12.0239 12.5355 12.3539C12.5355 15.0539 17.961 17.5357 18.5445 17.9467C18.981 18.2557 19.251 18.9194 19.5645 19.1384C19.881 19.3567 19.6373 19.9267 19.371 19.8929C19.0928 19.8539 17.91 20.1839 17.3055 20.1839C16.701 20.1839 11.3445 19.6229 8.81102 14.5484C8.81102 14.5484 8.73452 13.4812 9.44102 13.0739Z" fill="url(#paint20_radial_6432_52485)"/>
<defs>
<linearGradient id="paint0_linear_6432_52485" x1="24.75" y1="0.0585938" x2="1.55676" y2="27.5077" gradientUnits="userSpaceOnUse">
<stop stop-color="#5D3CC8"/>
<stop offset="1" stop-color="#1D0B3A"/>
</linearGradient>
<linearGradient id="paint1_linear_6432_52485" x1="5.74622" y1="9.06327" x2="7.01747" y2="15.3558" gradientUnits="userSpaceOnUse">
<stop stop-color="#EEAA00"/>
<stop offset="0.464" stop-color="#F9D85B"/>
<stop offset="0.836" stop-color="#FEF0A3"/>
</linearGradient>
<linearGradient id="paint2_linear_6432_52485" x1="5.45547" y1="13.6706" x2="9.55047" y2="9.24406" gradientUnits="userSpaceOnUse">
<stop stop-color="#D86D00" stop-opacity="0"/>
<stop offset="1" stop-color="#D86D00"/>
</linearGradient>
<linearGradient id="paint3_linear_6432_52485" x1="6.89622" y1="9.21359" x2="7.94247" y2="12.4483" gradientUnits="userSpaceOnUse">
<stop stop-color="#F1DAB9"/>
<stop offset="0.663" stop-color="#F1DAB9"/>
<stop offset="1" stop-color="#D6B58C"/>
</linearGradient>
<linearGradient id="paint4_linear_6432_52485" x1="9.17312" y1="12.7381" x2="5.59787" y2="12.3616" gradientUnits="userSpaceOnUse">
<stop stop-color="#EEAA00"/>
<stop offset="0.464" stop-color="#F9D85B"/>
</linearGradient>
<radialGradient id="paint5_radial_6432_52485" cx="0" cy="0" r="1" gradientUnits="userSpaceOnUse" gradientTransform="translate(15.6963 10.673) rotate(166.65) scale(7.52993 11.1072)">
<stop offset="0.62" stop-color="#F1DAB9"/>
<stop offset="0.766" stop-color="#FAF1DF"/>
<stop offset="0.888" stop-color="#F1DAB9"/>
<stop offset="1" stop-color="#D6B58C"/>
</radialGradient>
<linearGradient id="paint6_linear_6432_52485" x1="10.1508" y1="16.8058" x2="9.8591" y2="2.13803" gradientUnits="userSpaceOnUse">
<stop stop-color="#D6B58C"/>
<stop offset="0.052" stop-color="#DBBC95" stop-opacity="0.899"/>
<stop offset="0.208" stop-color="#E7CDA9" stop-opacity="0.597"/>
<stop offset="0.364" stop-color="#EFD7B5" stop-opacity="0.296"/>
<stop offset="0.518" stop-color="#F1DAB9" stop-opacity="0"/>
<stop offset="0.653" stop-color="#EDD5B3" stop-opacity="0.281"/>
<stop offset="0.842" stop-color="#E2C6A0" stop-opacity="0.672"/>
<stop offset="1" stop-color="#D6B58C"/>
</linearGradient>
<linearGradient id="paint7_linear_6432_52485" x1="10.0428" y1="9.85928" x2="4.7156" y2="10.9055" gradientUnits="userSpaceOnUse">
<stop offset="0.175" stop-color="#D6B58C" stop-opacity="0"/>
<stop offset="0.543" stop-color="#BF9969"/>
</linearGradient>
<linearGradient id="paint8_linear_6432_52485" x1="4.83902" y1="2.80868" x2="18.2903" y2="23.0707" gradientUnits="userSpaceOnUse">
<stop stop-color="#EEAA00"/>
<stop offset="1" stop-color="#FEF0A3"/>
</linearGradient>
<linearGradient id="paint9_linear_6432_52485" x1="-5.91334" y1="5.75788" x2="19.7734" y2="20.5479" gradientUnits="userSpaceOnUse">
<stop stop-color="#EEAA00"/>
<stop offset="1" stop-color="#F9D85B"/>
</linearGradient>
<linearGradient id="paint10_linear_6432_52485" x1="14.3846" y1="16.0462" x2="13.0226" y2="23.1495" gradientUnits="userSpaceOnUse">
<stop stop-color="#D86D00" stop-opacity="0"/>
<stop offset="1" stop-color="#D86D00"/>
</linearGradient>
<linearGradient id="paint11_linear_6432_52485" x1="24.837" y1="24.4387" x2="13.713" y2="15.7792" gradientUnits="userSpaceOnUse">
<stop stop-color="#97AC00"/>
<stop offset="1" stop-color="#D9C100" stop-opacity="0"/>
</linearGradient>
<linearGradient id="paint12_linear_6432_52485" x1="19.5544" y1="18.8156" x2="19.3759" y2="20.0561" gradientUnits="userSpaceOnUse">
<stop stop-color="#362501"/>
<stop offset="1" stop-color="#A67B19"/>
</linearGradient>
<linearGradient id="paint13_linear_6432_52485" x1="12.3874" y1="13.0018" x2="11.7799" y2="10.691" gradientUnits="userSpaceOnUse">
<stop stop-color="#D86D00" stop-opacity="0"/>
<stop offset="1" stop-color="#D86D00"/>
</linearGradient>
<radialGradient id="paint14_radial_6432_52485" cx="0" cy="0" r="1" gradientUnits="userSpaceOnUse" gradientTransform="translate(10.3983 20.3222) rotate(180) scale(8.70202)">
<stop offset="0.502" stop-color="#F1DAB9"/>
<stop offset="0.723" stop-color="#FAF1DF"/>
<stop offset="0.888" stop-color="#F1DAB9"/>
<stop offset="1" stop-color="#D6B58C"/>
</radialGradient>
<linearGradient id="paint15_linear_6432_52485" x1="17.9068" y1="15.5464" x2="13.3821" y2="13.0977" gradientUnits="userSpaceOnUse">
<stop stop-color="#EEAA00"/>
<stop offset="0.464" stop-color="#F9D85B"/>
</linearGradient>
<linearGradient id="paint16_linear_6432_52485" x1="17.9859" y1="12.4729" x2="9.91966" y2="11.1641" gradientUnits="userSpaceOnUse">
<stop stop-color="#F1DAB9"/>
<stop offset="0.464" stop-color="#FAF1DF"/>
<stop offset="0.714" stop-color="#F1DAB9"/>
<stop offset="1" stop-color="#D6B58C"/>
</linearGradient>
<linearGradient id="paint17_linear_6432_52485" x1="7.14678" y1="19.8757" x2="9.95253" y2="12.4484" gradientUnits="userSpaceOnUse">
<stop stop-color="#EEAA00"/>
<stop offset="0.464" stop-color="#F9D85B"/>
</linearGradient>
<radialGradient id="paint18_radial_6432_52485" cx="0" cy="0" r="1" gradientUnits="userSpaceOnUse" gradientTransform="translate(13.824 16.1062) rotate(-140.009) scale(2.85993 0.72303)">
<stop stop-color="white" stop-opacity="0.5"/>
<stop offset="1" stop-color="white" stop-opacity="0"/>
</radialGradient>
<linearGradient id="paint19_linear_6432_52485" x1="9.95702" y1="14.7114" x2="9.31202" y2="8.84938" gradientUnits="userSpaceOnUse">
<stop stop-color="#D86D00" stop-opacity="0"/>
<stop offset="1" stop-color="#D86D00"/>
</linearGradient>
<radialGradient id="paint20_radial_6432_52485" cx="0" cy="0" r="1" gradientUnits="userSpaceOnUse" gradientTransform="translate(10.7273 16.1714) rotate(-125.863) scale(4.80229 1.2142)">
<stop stop-color="#F29100" stop-opacity="0.5"/>
<stop offset="1" stop-color="#F29100" stop-opacity="0"/>
</radialGradient>
</defs>
</svg>
