<svg width="33" height="32" viewBox="0 0 33 32" fill="none" xmlns="http://www.w3.org/2000/svg">
<g opacity="0.4">
<path fill-rule="evenodd" clip-rule="evenodd" d="M28.0285 4.86C24.8138 1.78456 20.9158 0.246094 16.3375 0.246094C11.7975 0.246094 7.96899 1.7752 4.85147 4.83145C3.27353 6.35071 2.06999 8.07133 1.24189 9.99379C0.413794 11.9162 0 13.918 0 15.9999C0 18.1006 0.409191 20.0974 1.22757 21.9918C2.04595 23.8862 3.23926 25.5886 4.80799 27.098C6.37673 28.6075 8.15006 29.7609 10.1275 30.5575C12.1054 31.3555 14.1759 31.7533 16.3385 31.7533C18.501 31.7533 20.5961 31.3501 22.6221 30.5437C24.6491 29.7373 26.4613 28.574 28.0587 27.0552C29.5973 25.6113 30.7619 23.9463 31.5512 22.0617C32.3394 20.1777 32.7347 18.1567 32.7347 15.9999C32.7347 13.8618 32.3343 11.8414 31.5358 9.93766C30.7369 8.0344 29.5671 6.34136 28.0285 4.86ZM6.95574 6.85731C9.50858 4.34457 12.6558 3.08771 16.3968 3.08771C20.0989 3.08771 23.2646 4.35392 25.8967 6.88586C27.1621 8.1058 28.1273 9.49312 28.7886 11.0498C29.451 12.6065 29.7824 14.2567 29.7824 16.0009C29.7824 19.6214 28.5068 22.6313 25.9545 25.0318C24.6287 26.2695 23.1444 27.2157 21.4979 27.8729C19.8493 28.5297 18.1502 28.8571 16.3968 28.8571C14.6235 28.8571 12.9279 28.5336 11.3111 27.8867C9.69271 27.2388 8.24162 26.302 6.95574 25.0732C5.66935 23.8449 4.68115 22.4477 3.98911 20.8807C3.29655 19.3156 2.9513 17.6886 2.9513 16.0004C2.9513 14.2936 3.29655 12.6572 3.98911 11.0912C4.68064 9.52512 5.66935 8.11417 6.95574 6.85731ZM16.1917 13.3843L13.9989 14.4817C13.7647 14.0135 13.4777 13.6846 13.1371 13.4971C12.7959 13.31 12.4793 13.216 12.1867 13.216C10.7259 13.216 9.99449 14.1439 9.99449 16.0009C9.99449 16.8447 10.1797 17.5192 10.5495 18.0258C10.9198 18.5324 11.4655 18.7859 12.1867 18.7859C13.1417 18.7859 13.8138 18.3354 14.204 17.4355L16.2203 18.4201C15.7917 19.1896 15.1974 19.7942 14.4373 20.2348C13.6782 20.6759 12.8399 20.8959 11.9238 20.8959C10.4625 20.8959 9.28301 20.4652 8.38689 19.6017C7.49076 18.7391 7.04269 17.5389 7.04269 16.0014C7.04269 14.5009 7.49587 13.3105 8.40172 12.4288C9.30756 11.5475 10.4523 11.1064 11.8364 11.1064C13.8634 11.1054 15.3145 11.8651 16.1917 13.3843ZM23.4691 14.4817L25.6322 13.3843C24.7755 11.8651 23.3326 11.1054 21.306 11.1064C19.9225 11.1064 18.7778 11.5475 17.8724 12.4288C16.9656 13.3105 16.5129 14.5009 16.5129 16.0014C16.5129 17.5389 16.9558 18.7391 17.8438 19.6017C18.7297 20.4652 19.9128 20.8959 21.394 20.8959C22.2902 20.8959 23.1183 20.6759 23.8783 20.2348C24.6374 19.7942 25.242 19.1896 25.6895 18.4201L23.6436 17.4355C23.2543 18.3354 22.5817 18.7859 21.6278 18.7859C20.9056 18.7859 20.3603 18.5324 19.9905 18.0258C19.6207 17.5192 19.435 16.8447 19.435 16.0009C19.435 14.1439 20.1665 13.216 21.6278 13.216C21.9382 13.216 22.2651 13.31 22.6068 13.4971C22.9474 13.6846 23.2354 14.0135 23.4691 14.4817Z" fill="white"/>
</g>
</svg>
