<svg width="19" height="18" viewBox="0 0 19 18" fill="none" xmlns="http://www.w3.org/2000/svg">
<path d="M11.2695 12.3162C14.1473 12.3162 16.4802 9.9833 16.4802 7.10547C16.4802 4.22766 14.1473 1.89479 11.2695 1.89479C8.39175 1.89479 6.05886 4.22766 6.05886 7.10547C6.05886 9.9833 8.39175 12.3162 11.2695 12.3162ZM11.2695 14.2109C7.34542 14.2109 4.16406 11.0296 4.16406 7.10547C4.16406 3.18135 7.34542 0 11.2695 0C15.1936 0 18.375 3.18135 18.375 7.10547C18.375 11.0296 15.1936 14.2109 11.2695 14.2109Z" fill="#35D07F"/>
<path d="M7.48047 16.1062C10.3583 16.1062 12.6912 13.7733 12.6912 10.8955C12.6912 8.01773 10.3583 5.68483 7.48047 5.68483C4.60266 5.68483 2.26979 8.01773 2.26979 10.8955C2.26979 13.7733 4.60266 16.1062 7.48047 16.1062ZM7.48047 18.001C3.55635 18.001 0.375 14.8196 0.375 10.8955C0.375 6.97139 3.55635 3.79004 7.48047 3.79004C11.4046 3.79004 14.5859 6.97139 14.5859 10.8955C14.5859 14.8196 11.4046 18.001 7.48047 18.001Z" fill="#FBCC5C"/>
</svg>
