<svg width="42" height="42" viewBox="0 0 42 42" fill="none" xmlns="http://www.w3.org/2000/svg">
<path d="M19.8463 33.2786L9.79278 27.5337L13.1263 25.6288L11.4794 24.695L6.51163 27.5337L19.8463 35.1536L33.1811 27.5337L28.2133 24.695L26.5663 25.6288L29.8999 27.5337L19.8463 33.2786Z" fill="#98979B"/>
<path d="M25.3989 23.1675C25.3989 26.2128 22.9302 28.6815 19.8849 28.6815C16.8396 28.6815 14.3709 26.2128 14.3709 23.1675C14.3709 20.1222 16.8396 17.6535 19.8849 17.6535C22.9302 17.6535 25.3989 20.1222 25.3989 23.1675Z" fill="#F9F6F9"/>
<path d="M35.1779 17.7441C35.1779 19.4523 33.7931 20.8371 32.0849 20.8371C30.3767 20.8371 28.9919 19.4523 28.9919 17.7441C28.9919 16.0359 30.3767 14.6511 32.0849 14.6511C33.7931 14.6511 35.1779 16.0359 35.1779 17.7441Z" fill="#F9F6F9"/>
<path d="M16.7204 10.5814C16.7204 12.829 14.8983 14.6511 12.6506 14.6511C10.4029 14.6511 8.58084 12.829 8.58084 10.5814C8.58084 8.33369 10.4029 6.5116 12.6506 6.5116C14.8983 6.5116 16.7204 8.33369 16.7204 10.5814Z" fill="#F9F6F9"/>
<path fill-rule="evenodd" clip-rule="evenodd" d="M20.1085 22.0743L13.5128 10.3965L12.0954 11.1971L19.4208 24.1669L32.1956 18.4379L31.5295 16.9526L20.1085 22.0743Z" fill="#F9F6F9"/>
</svg>
