<svg xmlns="http://www.w3.org/2000/svg" viewBox="0 0 28.666 28.642"><defs><style>.a{fill:#eba7da;}.b,.c{fill:#f9f6f9;}.c{fill-rule:evenodd;}</style></defs><path class="a" d="M16,27.716,5.947,21.971l3.334-1.905-1.647-.934L2.666,21.971,16,29.591l13.335-7.62-4.968-2.839-1.647.934,3.333,1.905Z" transform="translate(-2.666 -0.949)"/><path class="b" d="M21.553,17.605a5.514,5.514,0,1,1-5.514-5.514A5.514,5.514,0,0,1,21.553,17.605Z" transform="translate(-2.666 -0.949)"/><path class="b" d="M31.332,12.182a3.093,3.093,0,1,1-3.093-3.093A3.093,3.093,0,0,1,31.332,12.182Z" transform="translate(-2.666 -0.949)"/><path class="b" d="M12.875,5.019A4.07,4.07,0,1,1,8.805.949,4.07,4.07,0,0,1,12.875,5.019Z" transform="translate(-2.666 -0.949)"/><path class="c" d="M16.263,16.512,9.667,4.834l-1.417.8L15.575,18.6,28.35,12.875l-.666-1.485Z" transform="translate(-2.666 -0.949)"/></svg>