<svg width="24" height="25" viewBox="0 0 24 25" fill="none" xmlns="http://www.w3.org/2000/svg">
<path fill-rule="evenodd" clip-rule="evenodd" d="M12 0.513672C5.37258 0.513672 0 5.88625 0 12.5137C0 19.1411 5.37258 24.5137 12 24.5137C18.6274 24.5137 24 19.1411 24 12.5137C24 5.88625 18.6274 0.513672 12 0.513672ZM7.45257 5.71367H16.9474C17.7481 5.71367 18.4 6.35767 18.4 7.15567V19.7137L16.8766 18.3837L16.0192 17.5997L15.1122 16.7667L15.4878 18.0617H7.45257C6.65189 18.0617 6 17.4177 6 16.6197V7.15567C6 6.35767 6.65189 5.71367 7.45257 5.71367Z" fill="#9398A8"/>
<path fill-rule="evenodd" clip-rule="evenodd" d="M14.2134 14.8556C14.2134 14.8556 13.9583 14.5546 13.7457 14.2886C14.6739 14.0296 15.0282 13.4556 15.0282 13.4556C14.7377 13.6446 14.4614 13.7776 14.2134 13.8686C13.8591 14.0156 13.519 14.1136 13.1859 14.1696C12.5057 14.2956 11.8822 14.2606 11.3507 14.1626C10.9468 14.0856 10.5996 13.9736 10.3091 13.8616C10.1462 13.7986 9.96901 13.7216 9.79187 13.6236C9.78124 13.6166 9.77061 13.6114 9.75998 13.6061C9.74935 13.6009 9.73873 13.5956 9.7281 13.5886C9.71393 13.5816 9.70684 13.5746 9.69975 13.5676C9.57221 13.4976 9.50135 13.4486 9.50135 13.4486C9.50135 13.4486 9.84147 14.0086 10.7414 14.2746C10.5288 14.5406 10.2666 14.8556 10.2666 14.8556C8.70067 14.8066 8.10547 13.7916 8.10547 13.7916C8.10547 11.5376 9.12581 9.71064 9.12581 9.71064C10.1462 8.95464 11.1169 8.97564 11.1169 8.97564L11.1878 9.05964C9.91233 9.42364 9.32421 9.97664 9.32421 9.97664C9.32421 9.97664 9.4801 9.89264 9.74227 9.77364C10.5004 9.44464 11.1027 9.35364 11.3507 9.33264L11.3666 9.32999C11.4024 9.32398 11.4341 9.31864 11.4712 9.31864C11.9034 9.26264 12.3923 9.24864 12.9025 9.30464C13.5756 9.38164 14.2984 9.57764 15.0353 9.97664C15.0353 9.97664 14.4755 9.45164 13.271 9.08764L13.3702 8.97564C13.3702 8.97564 14.3409 8.95464 15.3612 9.71064C15.3612 9.71064 16.3816 11.5376 16.3816 13.7916C16.3816 13.7916 15.7793 14.8066 14.2134 14.8556ZM11.1181 11.7136C10.7174 11.7136 10.401 12.074 10.401 12.5136C10.401 12.9533 10.7244 13.3136 11.1181 13.3136C11.5188 13.3136 11.8351 12.9533 11.8351 12.5136C11.8421 12.074 11.5188 11.7136 11.1181 11.7136ZM12.9669 12.5136C12.9669 12.074 13.2833 11.7136 13.684 11.7136C14.0847 11.7136 14.401 12.074 14.401 12.5136C14.401 12.9533 14.0847 13.3136 13.684 13.3136C13.2903 13.3136 12.9669 12.9533 12.9669 12.5136Z" fill="#9398A8"/>
</svg>
