<svg xmlns="http://www.w3.org/2000/svg" width="33" height="33" viewBox="0 0 33 33" fill="#ffffff"><defs><style>.a{fill:#8668FC;}</style></defs><rect width="33" height="33"/><path class="a" d="M43.43,30.778a.406.406,0,0,0-.117-.124,10.189,10.189,0,0,0-4.7-1.884h0a.124.124,0,0,0-.1.069l-.131.261h0a.069.069,0,0,0,0,.048.117.117,0,0,0,.083.117h0a9.625,9.625,0,0,1,4.428,2.413,14.664,14.664,0,0,0-14.575,0,9.625,9.625,0,0,1,4.441-2.4h0a.117.117,0,0,0,.083-.117.131.131,0,0,0,0-.048h0l-.131-.261a.124.124,0,0,0-.11-.069h0a10.189,10.189,0,0,0-4.7,1.884.406.406,0,0,0-.117.124c-.344.536-2.447,4.07-2.86,10.5a.268.268,0,0,0,.069.193,9.158,9.158,0,0,0,6.112,2.833.254.254,0,0,0,.206-.1l.619-.853a.117.117,0,0,0-.055-.186,9.776,9.776,0,0,1-4.049-2.75,12.279,12.279,0,0,0,7.776,2.427,12.258,12.258,0,0,0,7.776-2.427,9.776,9.776,0,0,1-4.049,2.75.117.117,0,0,0-.048.186l.619.832a.254.254,0,0,0,.206.1,9.151,9.151,0,0,0,6.112-2.833.241.241,0,0,0,.069-.158C45.878,34.848,43.774,31.314,43.43,30.778Zm-11,8.663a1.959,1.959,0,0,1,0-3.884,1.959,1.959,0,0,1,0,3.884Zm6.311,0a1.959,1.959,0,1,1,1.7-1.939,1.829,1.829,0,0,1-1.677,1.939Z" transform="translate(-18.916 -19.991)"/></svg>
