<svg xmlns="http://www.w3.org/2000/svg" width="33" height="33" viewBox="0 0 33 33" fill="#ffffff"><defs><style>.a{fill:#8668FC;}</style></defs><rect width="33" height="33"/><path class="a" d="M45.213,30.83a2.063,2.063,0,0,1-1.9,0c.8-.481.839-.811,1.127-1.719a7.982,7.982,0,0,1-2.454.942,3.871,3.871,0,0,0-6.7,2.647,4.125,4.125,0,0,0,.1.88A10.952,10.952,0,0,1,27.4,29.551a3.823,3.823,0,0,0-.529,1.946A3.884,3.884,0,0,0,28.6,34.721a3.864,3.864,0,0,1-1.753-.488v.048a3.871,3.871,0,0,0,3.1,3.795,3.836,3.836,0,0,1-1.746.069,3.871,3.871,0,0,0,3.616,2.688,7.769,7.769,0,0,1-5.734,1.6,11,11,0,0,0,16.94-9.261v-.5a8.284,8.284,0,0,0,2.193-1.842Z" transform="translate(-19.212 -20.009)"/></svg>
