<svg width="33" height="32" viewBox="0 0 33 32" fill="none" xmlns="http://www.w3.org/2000/svg">
<g opacity="0.3">
<path d="M16.482 0.117432C7.50636 0.117432 0.228027 7.24096 0.228027 16.029C0.228027 23.0592 4.88529 29.0237 11.3435 31.1277C12.1558 31.2749 12.454 30.7825 12.454 30.3622C12.454 29.9828 12.439 28.7293 12.432 27.3998C7.9101 28.3623 6.95593 25.5224 6.95593 25.5224C6.21655 23.6832 5.15122 23.1941 5.15122 23.1941C3.67649 22.2066 5.26238 22.2269 5.26238 22.2269C6.89456 22.3388 7.75398 23.8666 7.75398 23.8666C9.20368 26.2991 11.5564 25.5959 12.4839 25.1893C12.6298 24.1612 13.051 23.4587 13.5159 23.0616C9.90564 22.6593 6.1105 21.2949 6.1105 15.1979C6.1105 13.4607 6.74545 12.0413 7.78521 10.927C7.61645 10.5259 7.06009 8.90782 7.94267 6.71609C7.94267 6.71609 9.30757 6.28844 12.4137 8.34711C13.7102 7.99455 15.1007 7.81775 16.482 7.81169C17.8633 7.81775 19.2549 7.99455 20.5538 8.34711C23.6562 6.28844 25.0192 6.71609 25.0192 6.71609C25.9039 8.90782 25.3473 10.5259 25.1785 10.927C26.2207 12.0413 26.8514 13.4607 26.8514 15.1979C26.8514 21.3094 23.049 22.655 19.4296 23.049C20.0126 23.5427 20.532 24.5111 20.532 25.9956C20.532 28.1244 20.5132 29.8379 20.5132 30.3622C20.5132 30.7856 20.8058 31.2818 21.6297 31.1255C28.0844 29.0192 32.7357 23.0569 32.7357 16.029C32.7357 7.24096 25.4585 0.117432 16.482 0.117432Z" fill="white"/>
<path d="M6.38436 22.963C6.34856 23.0423 6.22153 23.0658 6.10579 23.0115C5.98791 22.9596 5.9217 22.8518 5.95992 22.7725C5.99491 22.6911 6.12221 22.6687 6.23983 22.7227C6.35798 22.7749 6.42527 22.8837 6.38436 22.963Z" fill="white"/>
<path d="M7.04281 23.6819C6.9653 23.7523 6.81377 23.7196 6.71096 23.6084C6.60465 23.4975 6.58473 23.3491 6.66332 23.2777C6.74326 23.2074 6.89021 23.2403 6.99679 23.3512C7.1031 23.4635 7.12383 23.6108 7.04281 23.6819Z" fill="white"/>
<path d="M7.68374 24.5983C7.58416 24.666 7.42132 24.6025 7.32066 24.461C7.22108 24.3195 7.22108 24.1498 7.32282 24.0818C7.42375 24.0138 7.58416 24.075 7.68616 24.2154C7.78548 24.359 7.78548 24.529 7.68374 24.5983Z" fill="white"/>
<path d="M8.5614 25.4835C8.47232 25.5797 8.28257 25.5539 8.14369 25.4226C8.00158 25.2943 7.96202 25.1122 8.05137 25.0161C8.14154 24.9196 8.33236 24.9468 8.47232 25.0769C8.61335 25.205 8.65641 25.3884 8.5614 25.4835Z" fill="white"/>
<path d="M9.77271 25.9978C9.73341 26.1224 9.55064 26.1791 9.36653 26.1261C9.18268 26.0715 9.06236 25.9256 9.09951 25.7996C9.13773 25.6742 9.32131 25.6152 9.50677 25.6718C9.69034 25.7261 9.81093 25.871 9.77271 25.9978Z" fill="white"/>
<path d="M11.1028 26.093C11.1074 26.2242 10.9513 26.333 10.758 26.3352C10.5636 26.3396 10.4065 26.2334 10.4043 26.1043C10.4043 25.9718 10.5569 25.864 10.7513 25.8609C10.9445 25.8572 11.1028 25.9626 11.1028 26.093Z" fill="white"/>
<path d="M12.3404 25.8867C12.3636 26.0148 12.2293 26.1463 12.0374 26.1811C11.8487 26.215 11.674 26.136 11.6501 26.009C11.6267 25.8778 11.7634 25.7463 11.9518 25.7123C12.144 25.6796 12.3159 25.7566 12.3404 25.8867Z" fill="white"/>
</g>
</svg>
