<svg width="34" height="32" viewBox="0 0 34 32" fill="none" xmlns="http://www.w3.org/2000/svg">
<g opacity="0.3">
<path fill-rule="evenodd" clip-rule="evenodd" d="M16.6234 0C7.44253 0 0 7.16344 0 16C0 24.8366 7.44253 32 16.6234 32C25.8042 32 33.2467 24.8366 33.2467 16C33.2467 7.16344 25.8042 0 16.6234 0ZM10.3239 6.93332H23.4769C24.5861 6.93332 25.4891 7.79199 25.4891 8.85599V25.6L23.3788 23.8267L22.1911 22.7813L20.9346 21.6707L21.4549 23.3973H10.3239C9.21469 23.3973 8.31165 22.5387 8.31165 21.4747V8.85599C8.31165 7.79199 9.21469 6.93332 10.3239 6.93332Z" fill="white"/>
<path fill-rule="evenodd" clip-rule="evenodd" d="M19.6883 19.1226C19.6883 19.1226 19.3349 18.7212 19.0404 18.3666C20.3263 18.0212 20.8171 17.2559 20.8171 17.2559C20.4146 17.5079 20.0318 17.6852 19.6883 17.8066C19.1975 18.0026 18.7263 18.1332 18.265 18.2079C17.3227 18.3759 16.4589 18.3292 15.7227 18.1986C15.1632 18.0959 14.6822 17.9466 14.2798 17.7972C14.054 17.7132 13.8086 17.6106 13.5632 17.4799C13.5485 17.4706 13.5338 17.4636 13.519 17.4566C13.5043 17.4496 13.4896 17.4426 13.4749 17.4332C13.4552 17.4239 13.4454 17.4146 13.4356 17.4052C13.2589 17.3119 13.1608 17.2466 13.1608 17.2466C13.1608 17.2466 13.6319 17.9932 14.8785 18.3479C14.5841 18.7026 14.2209 19.1226 14.2209 19.1226C12.0516 19.0572 11.2271 17.7039 11.2271 17.7039C11.2271 14.6986 12.6405 12.2625 12.6405 12.2625C14.054 11.2545 15.3988 11.2825 15.3988 11.2825L15.4969 11.3945C13.7301 11.8799 12.9154 12.6172 12.9154 12.6172C12.9154 12.6172 13.1313 12.5052 13.4945 12.3465C14.5448 11.9079 15.3791 11.7865 15.7227 11.7585L15.7447 11.755C15.7942 11.747 15.8381 11.7399 15.8896 11.7399C16.4883 11.6652 17.1656 11.6465 17.8723 11.7212C18.8048 11.8239 19.8061 12.0852 20.8269 12.6172C20.8269 12.6172 20.0514 11.9172 18.3828 11.4319L18.5202 11.2825C18.5202 11.2825 19.8649 11.2545 21.2784 12.2625C21.2784 12.2625 22.6919 14.6986 22.6919 17.7039C22.6919 17.7039 21.8576 19.0572 19.6883 19.1226ZM15.4003 14.9332C14.8452 14.9332 14.407 15.4137 14.407 15.9999C14.407 16.5861 14.855 17.0666 15.4003 17.0666C15.9554 17.0666 16.3936 16.5861 16.3936 15.9999C16.4034 15.4137 15.9554 14.9332 15.4003 14.9332ZM17.9614 15.9999C17.9614 15.4137 18.3997 14.9332 18.9548 14.9332C19.5099 14.9332 19.9481 15.4137 19.9481 15.9999C19.9481 16.5861 19.5099 17.0666 18.9548 17.0666C18.4094 17.0666 17.9614 16.5861 17.9614 15.9999Z" fill="white"/>
</g>
</svg>
