<svg xmlns="http://www.w3.org/2000/svg" width="33" height="33" viewBox="0 0 33 33" fill="#ffffff"><defs><style>.a{fill:#8668FC;}</style></defs><g transform="translate(541.937 920.854)"><rect width="33" height="33" transform="translate(-541.937 -920.854)"/><g transform="translate(-535.073 -912.322)"><path class="a" d="M-530.771-901.5s8.523-3.5,11.479-4.73c1.133-.492,4.976-2.069,4.976-2.069s1.774-.69,1.626.986c-.049.69-.443,3.1-.837,5.714-.591,3.7-1.232,7.736-1.232,7.736s-.1,1.133-.936,1.33a4.051,4.051,0,0,1-2.463-.887c-.2-.148-3.695-2.364-4.976-3.448a.933.933,0,0,1,.05-1.576c1.774-1.626,3.892-3.646,5.173-4.927.591-.591,1.182-1.971-1.281-.3-3.5,2.414-6.946,4.681-6.946,4.681a2.9,2.9,0,0,1-2.267.049c-1.477-.443-3.2-1.035-3.2-1.035S-532.792-900.716-530.771-901.5Z" transform="translate(531.953 908.443)"/></g></g></svg>
