<svg width="34" height="32" viewBox="0 0 34 32" fill="none" xmlns="http://www.w3.org/2000/svg">
<path fill-rule="evenodd" clip-rule="evenodd" d="M0.376465 16C0.376465 7.16344 7.81899 0 16.9998 0C26.1806 0 33.6232 7.16344 33.6232 16C33.6232 24.8366 26.1806 32 16.9998 32C7.81899 32 0.376465 24.8366 0.376465 16ZM14.3266 11.6913L9.00428 9.16026C8.95874 9.13858 8.91533 9.12836 8.87611 9.12836C8.82024 9.12836 8.77298 9.14925 8.73973 9.1874C8.70719 9.2247 8.68811 9.27862 8.68811 9.34609V20.2117C8.68811 20.3967 8.83039 20.6156 9.00428 20.6983L13.9228 23.0372C13.9911 23.0698 14.0562 23.0851 14.115 23.0851C14.2807 23.0851 14.397 22.9632 14.397 22.7585V11.7996C14.397 11.7537 14.3697 11.7118 14.3266 11.6913ZM25.3396 23.0336L20.5603 20.7609L25.8138 12.6414V22.7548C25.8138 23.0322 25.6004 23.1577 25.3396 23.0336ZM14.9015 12.5046V18.0731L20.1057 20.548L14.9015 12.5046ZM20.2638 9.08511L25.6887 11.665C25.7563 11.6971 25.7803 11.7774 25.7408 11.8386L20.4019 20.0901L16.6693 14.3211L20.0131 9.15308C20.0486 9.0982 20.1143 9.06668 20.1803 9.06668C20.1813 9.06668 20.1822 9.06684 20.1832 9.06699C20.184 9.06711 20.1847 9.06722 20.1855 9.06724C20.2123 9.06792 20.2391 9.07337 20.2638 9.08511Z" fill="white"/>
</svg>
