<svg width="35" height="32" viewBox="0 0 35 32" fill="none" xmlns="http://www.w3.org/2000/svg">
<g opacity="0.3">
<path fill-rule="evenodd" clip-rule="evenodd" d="M17.4158 0C8.23501 0 0.79248 7.16344 0.79248 16C0.79248 24.8366 8.23501 32 17.4158 32C26.5967 32 34.0392 24.8366 34.0392 16C34.0392 7.16344 26.5967 0 17.4158 0ZM16.9528 13.5586L16.9179 13.005C16.8133 11.5701 17.7318 10.2594 19.1853 9.75098C19.7202 9.5702 20.6271 9.54761 21.2201 9.70579C21.4527 9.77358 21.8945 9.99955 22.2085 10.2029L22.7782 10.5758L23.4061 10.3837C23.755 10.282 24.2201 10.1125 24.4294 9.99955C24.627 9.89787 24.8015 9.84137 24.8015 9.87527C24.8015 10.0673 24.3712 10.7227 24.0108 11.0842C23.5224 11.5927 23.6619 11.6379 24.6503 11.2989C25.2433 11.1068 25.2549 11.1068 25.1387 11.3215C25.0689 11.4345 24.7084 11.8299 24.3247 12.1915C23.6736 12.8129 23.6387 12.8807 23.6387 13.4005C23.6387 14.2027 23.2433 15.8749 22.848 16.7901C22.1155 18.5075 20.5457 20.2814 18.976 21.174C16.7667 22.4281 13.825 22.7445 11.3483 22.0101C10.5227 21.7615 9.10413 21.1288 9.10413 21.0158C9.10413 20.9819 9.53435 20.9367 10.0576 20.9254C11.1506 20.9028 12.2436 20.609 13.1738 20.0893L13.8017 19.7277L13.0808 19.4904C12.0575 19.1515 11.139 18.3719 10.9064 17.6375C10.8366 17.4002 10.8599 17.3889 11.511 17.3889L12.1855 17.3776L11.6157 17.1177C10.9413 16.7901 10.325 16.2364 10.0227 15.6715C9.80179 15.2647 9.52272 14.2366 9.60411 14.1575C9.62737 14.1236 9.87155 14.1914 10.1506 14.2818C10.9529 14.5642 11.0576 14.4964 10.5925 14.0219C9.72039 13.1632 9.45296 11.8864 9.87155 10.6775L10.0692 10.1351L10.8366 10.8696C12.4064 12.3497 14.2552 13.231 16.3714 13.4908L16.9528 13.5586Z" fill="white"/>
</g>
</svg>
