<svg width="34" height="32" viewBox="0 0 34 32" fill="none" xmlns="http://www.w3.org/2000/svg">
<g opacity="0.3">
<path fill-rule="evenodd" clip-rule="evenodd" d="M17.2079 0C8.02703 0 0.584473 7.16344 0.584473 16C0.584473 24.8366 8.02703 32 17.2079 32C26.3887 32 33.8313 24.8366 33.8313 16C33.8313 7.16344 26.3887 0 17.2079 0ZM24.1353 10.4996C24.8983 10.7011 25.4991 11.2948 25.7031 12.0488C26.0736 13.4154 26.0736 16.2667 26.0736 16.2667C26.0736 16.2667 26.0736 19.1179 25.7031 20.4845C25.4991 21.2385 24.8983 21.8323 24.1353 22.0339C22.7527 22.4 17.2078 22.4 17.2078 22.4C17.2078 22.4 11.663 22.4 10.2802 22.0339C9.51726 21.8323 8.9164 21.2385 8.71249 20.4845C8.34204 19.1179 8.34204 16.2667 8.34204 16.2667C8.34204 16.2667 8.34204 13.4154 8.71249 12.0488C8.9164 11.2948 9.51726 10.7011 10.2802 10.4996C11.663 10.1333 17.2078 10.1333 17.2078 10.1333C17.2078 10.1333 22.7527 10.1333 24.1353 10.4996Z" fill="white"/>
<path d="M15.5454 19.2V13.8667L19.9783 16.5335L15.5454 19.2Z" fill="white"/>
</g>
</svg>
