<svg xmlns="http://www.w3.org/2000/svg" width="33" height="33" viewBox="0 0 33 33" fill="#ffffff"><defs><style>.a{fill:#8668FC;}</style></defs><rect width="33" height="33"/><path class="a" d="M28.379,32.073a.763.763,0,0,0-.241-.626L26.351,29.3V29h5.5l4.283,9.391L39.929,29h5.28v.323l-1.526,1.464a.454.454,0,0,0-.172.426V41.932a.454.454,0,0,0,.172.426l1.492,1.464v.3H37.681V43.8l1.547-1.5c.151-.151.151-.192.151-.426V33.214l-4.29,10.911h-.577L29.52,33.214v7.3a.969.969,0,0,0,.275.839l2,2.434v.337H26.11v-.316L28.1,41.375a1,1,0,0,0,.261-.839Z" transform="translate(-19.159 -20.063)"/></svg>
