<svg width="42" height="42" viewBox="0 0 42 42" fill="none" xmlns="http://www.w3.org/2000/svg">
<path d="M17.323 23.5675C16.9957 23.7967 16.701 24.0913 16.5701 24.4841C16.21 25.4008 17.1266 27.6923 17.1266 27.6923C17.1266 27.6923 19.4837 26.4811 19.8438 25.5644C20.0074 25.2043 20.0074 24.7788 19.9092 24.4187" fill="#98979B"/>
<path fill-rule="evenodd" clip-rule="evenodd" d="M24.7829 14.6234L24.9422 14.0982C25.7077 11.7346 25.5228 9.24808 24.3911 7.0643C24.3581 7.03185 24.3578 6.99911 24.3248 6.96666C24.2918 6.9342 24.259 6.93448 24.226 6.90202L24.0951 6.90314C24.0623 6.90342 24.0296 6.9037 23.9644 6.93699C22.8889 7.50271 21.946 8.26372 21.1354 9.1873C20.3576 10.1106 19.7445 11.1634 19.3945 12.345L19.2028 12.9032L18.1673 16.2536C18.0654 16.5832 17.7151 16.7673 17.3858 16.6641V16.6641C17.0575 16.5613 16.8747 16.2117 16.9776 15.8833L17.517 14.1616L13.4691 16.1931C13.4039 16.2264 13.339 16.2924 13.3395 16.3579L12.7662 18.2288C12.7668 18.2943 12.7676 18.3925 12.8009 18.4577C12.8342 18.5229 12.9002 18.5878 12.9987 18.6197L16.3799 19.704L15.9975 20.9185C15.9653 20.9843 15.9661 21.0825 16.0321 21.1474C16.0654 21.2126 16.1315 21.2775 16.23 21.3094L22.4673 23.3186C22.533 23.3508 22.6312 23.35 22.6961 23.284C22.7613 23.2507 22.8262 23.1846 22.8581 23.0861L23.2406 21.8716L26.5564 22.9564C26.6222 22.9886 26.7204 22.9877 26.7853 22.9217C26.8505 22.8884 26.9154 22.8224 26.9473 22.7239L27.5214 20.9511C27.5536 20.8854 27.5528 20.7872 27.5195 20.722L25.4552 16.6487L24.9165 18.368C24.8132 18.6977 24.4621 18.8813 24.1324 18.778V18.778C23.8023 18.6746 23.6188 18.323 23.7226 17.9931L24.7829 14.6234ZM23.4179 11.9505C23.1182 11.3638 22.4288 11.1405 21.8749 11.4399C21.3209 11.7393 21.0976 12.4287 21.3642 12.9829C21.6639 13.5696 22.3533 13.7929 22.9073 13.4936C23.494 13.1939 23.7173 12.5045 23.4179 11.9505Z" fill="#98979B"/>
<path d="M20.9372 32.9744L10.8286 27.198L14.1804 25.2826L12.5244 24.3437L7.52942 27.198L20.9372 34.8596L34.345 27.198L29.35 24.3437L27.694 25.2826L31.0459 27.198L20.9372 32.9744Z" fill="#98979B"/>
</svg>
