<svg xmlns="http://www.w3.org/2000/svg" viewBox="0 0 26.816 27.958"><defs><style>.a,.b{fill:#f9f6f9;}.b{fill-rule:evenodd;}.c{fill:#98979b;}</style></defs><path class="a" d="M12.387,18.3a1.879,1.879,0,0,0-.753.917c-.36.916.556,3.208.556,3.208s2.357-1.211,2.717-2.128a1.728,1.728,0,0,0,.066-1.146" transform="translate(-2.593 -1.633)"/><path class="b" d="M19.846,9.355l.16-.525A9.071,9.071,0,0,0,19.455,1.8c-.033-.033-.034-.065-.067-.1s-.065-.032-.1-.065l-.131,0a.245.245,0,0,0-.131.033A9.871,9.871,0,0,0,16.2,3.919a8.769,8.769,0,0,0-1.741,3.157l-.192.559-1.035,3.35a.623.623,0,0,1-.782.411h0a.623.623,0,0,1-.408-.781l.54-1.722L8.533,10.925a.217.217,0,0,0-.13.164L7.83,12.96a.551.551,0,0,0,.034.229.34.34,0,0,0,.2.162l3.381,1.084-.382,1.215a.2.2,0,0,0,.035.229.334.334,0,0,0,.2.162l6.237,2.009a.2.2,0,0,0,.229-.035.335.335,0,0,0,.162-.2L18.3,16.6l3.316,1.085a.2.2,0,0,0,.229-.035.334.334,0,0,0,.162-.2l.574-1.772a.283.283,0,0,0,0-.23L20.519,11.38,19.98,13.1a.625.625,0,0,1-.784.41h0a.625.625,0,0,1-.41-.784ZM18.481,6.682a1.128,1.128,0,0,0-1.543-.511,1.186,1.186,0,0,0-.51,1.543,1.149,1.149,0,1,0,2.053-1.032Z" transform="translate(-2.593 -1.633)"/><path class="c" d="M16,27.706,5.892,21.929l3.352-1.915-1.656-.939L2.593,21.929,16,29.591l13.408-7.662-4.995-2.854-1.656.939,3.351,1.915Z" transform="translate(-2.593 -1.633)"/></svg>