<svg width="115" height="29" viewBox="0 0 115 29" fill="none" xmlns="http://www.w3.org/2000/svg">
<path d="M37.5297 8.23106H32.4465V20.7855H35.1219V16.5708H37.5297C38.4215 16.5708 39.2063 16.4093 39.8841 16.0686C40.5618 15.7278 41.0969 15.2436 41.4715 14.6159C41.846 13.9881 42.0422 13.2528 42.0422 12.4099C42.0422 11.5849 41.846 10.8495 41.4715 10.2039C41.0969 9.57617 40.5618 9.09193 39.8841 8.75117C39.2063 8.41041 38.4215 8.23106 37.5297 8.23106ZM35.1219 14.3289V10.4729H37.28C37.9043 10.4729 38.4037 10.6523 38.7783 10.993C39.135 11.3517 39.3312 11.818 39.3312 12.4099C39.3312 13.0017 39.135 13.468 38.7783 13.8088C38.4037 14.1675 37.9043 14.3289 37.28 14.3289H35.1219Z" fill="#DCDAE5"/>
<path d="M48.9281 11.5669H48.5C47.8223 11.5669 47.2694 11.6925 46.877 11.9256C46.4667 12.1588 46.1279 12.4996 45.8603 12.9479L45.6285 11.5669H43.3455V20.7855H45.8603V16.2659C45.8603 15.5305 46.0208 14.9387 46.3597 14.5083C46.6808 14.0778 47.2158 13.8626 47.9293 13.8626H48.9281V11.5669Z" fill="#DCDAE5"/>
<path d="M52.3521 8.14138C52.0668 7.87236 51.7279 7.72888 51.3177 7.72888C50.8896 7.72888 50.5507 7.87236 50.2654 8.14138C49.98 8.41041 49.8551 8.75117 49.8551 9.14573C49.8551 9.55824 49.98 9.899 50.2654 10.168C50.5507 10.455 50.8896 10.5805 51.3177 10.5805C51.7279 10.5805 52.0668 10.455 52.3521 10.168C52.6197 9.899 52.7624 9.55824 52.7624 9.14573C52.7624 8.75117 52.6197 8.41041 52.3521 8.14138ZM50.0513 11.5669V20.7855H52.5662V11.5669H50.0513Z" fill="#DCDAE5"/>
<path d="M67.7491 12.4457C67.1248 11.8001 66.3222 11.4593 65.3412 11.4593C64.6456 11.4593 64.0214 11.6028 63.4863 11.8718C62.9512 12.1409 62.5053 12.5175 62.1843 13.0197C61.667 11.9794 60.7574 11.4593 59.4554 11.4593C58.8133 11.4773 58.2782 11.5849 57.8502 11.8001C57.4221 12.0153 57.0476 12.3202 56.7444 12.7148L56.5125 11.5669H54.3187V20.8034H56.8335V15.7637C56.8335 15.0822 56.9941 14.5441 57.3151 14.1496C57.6362 13.755 58.082 13.5398 58.635 13.5398C59.7051 13.5398 60.2402 14.2392 60.2402 15.6382V20.8034H62.755V15.7458C62.755 15.0642 62.9156 14.5262 63.2544 14.1316C63.5755 13.7371 64.0214 13.5398 64.5743 13.5398C65.6266 13.5398 66.1617 14.2392 66.1617 15.6382V20.8034H68.6765V15.7278C68.6765 14.2034 68.3555 13.1093 67.7491 12.4457Z" fill="#DCDAE5"/>
<path d="M70.47 13.7012C70.0776 14.4186 69.8993 15.2436 69.8993 16.1941C69.8993 17.1447 70.0954 17.9697 70.4878 18.6871C70.8802 19.4045 71.451 19.9425 72.2001 20.3191C72.9492 20.7137 73.8231 20.8931 74.8576 20.8931C75.6424 20.8931 76.338 20.7675 76.9444 20.4806C77.5508 20.1936 78.0324 19.817 78.4069 19.3148C78.7637 18.8306 78.9955 18.2746 79.1025 17.6648H76.6234C76.5163 18.0952 76.2845 18.436 75.9456 18.6512C75.6067 18.8664 75.1787 18.974 74.6793 18.974C74.0372 18.974 73.5199 18.7947 73.1632 18.4001C72.7887 18.0235 72.5746 17.5034 72.5211 16.8218V16.7501H79.1739C79.2096 16.499 79.2452 16.2121 79.2452 15.8892C79.2274 14.9925 79.0134 14.2213 78.621 13.5577C78.2286 12.8941 77.6757 12.374 76.9622 12.0153C76.2488 11.6566 75.4462 11.4593 74.5187 11.4593C73.5913 11.4593 72.7887 11.6566 72.0931 12.0512C71.3975 12.4457 70.8624 12.9838 70.47 13.7012ZM76.7304 15.1001H72.5746C72.646 14.5621 72.86 14.1496 73.2346 13.8267C73.6091 13.5039 74.0728 13.3425 74.6257 13.3425C75.1965 13.3425 75.6602 13.5039 76.0348 13.8088C76.4093 14.1137 76.6412 14.5441 76.7304 15.1001Z" fill="#DCDAE5"/>
<path d="M80.9584 8.23106V20.7855H84.6505C85.9346 20.7855 87.0405 20.5344 87.9858 20.0143C88.9311 19.4941 89.6623 18.7588 90.1617 17.8083C90.6611 16.8577 90.9287 15.7637 90.9287 14.5083C90.9287 13.2528 90.6611 12.1588 90.1617 11.2082C89.6623 10.2756 88.9311 9.5403 87.9858 9.02019C87.0405 8.50008 85.9346 8.23106 84.6505 8.23106H80.9584ZM84.6505 19.3507H82.5102V9.66585H84.6505C86.1487 9.66585 87.2902 10.1142 88.1106 10.9751C88.9311 11.836 89.3413 13.0197 89.3413 14.5083C89.3413 15.9968 88.9311 17.1805 88.1106 18.0414C87.2902 18.9202 86.1308 19.3507 84.6505 19.3507Z" fill="#DCDAE5"/>
<path d="M91.333 20.7855H92.9383L94.2581 17.3958H99.698L101.018 20.7855H102.677L97.9323 8.23106H96.0952L91.333 20.7855ZM94.7218 15.9789L96.9692 9.93487L99.2343 15.9789H94.7218Z" fill="#DCDAE5"/>
<path d="M114.233 17.7903C114.732 16.8218 115 15.7278 115 14.5083C115 13.2887 114.732 12.1947 114.233 11.2262C113.734 10.2577 113.02 9.50443 112.128 8.94845C111.219 8.41041 110.184 8.12345 109.043 8.12345C107.883 8.12345 106.849 8.41041 105.957 8.94845C105.048 9.50443 104.334 10.2577 103.835 11.2262C103.335 12.1947 103.086 13.2887 103.086 14.5083C103.086 15.7278 103.335 16.8218 103.835 17.7903C104.334 18.7588 105.048 19.53 105.957 20.0681C106.849 20.624 107.883 20.8931 109.043 20.8931C110.184 20.8931 111.219 20.624 112.128 20.0681C113.02 19.53 113.734 18.7588 114.233 17.7903ZM105.226 17.0729C104.851 16.3197 104.673 15.4767 104.673 14.5083C104.673 13.5577 104.851 12.7148 105.226 11.9615C105.583 11.2082 106.1 10.6343 106.76 10.2039C107.42 9.77346 108.187 9.55824 109.043 9.55824C109.899 9.55824 110.648 9.77346 111.308 10.2039C111.968 10.6343 112.485 11.2082 112.86 11.9615C113.216 12.7148 113.413 13.5577 113.413 14.5083C113.413 15.4767 113.216 16.3197 112.86 17.0729C112.485 17.8262 111.968 18.4001 111.308 18.8306C110.648 19.261 109.899 19.4583 109.043 19.4583C108.187 19.4583 107.42 19.261 106.76 18.8306C106.1 18.4001 105.583 17.8262 105.226 17.0729Z" fill="#DCDAE5"/>
<path d="M18.0254 20.7143L0.000488281 10.3572L3.60548 8.28577L21.6304 18.6429L18.0254 20.7143Z" fill="#9398A8"/>
<path d="M0 22.7852L3.60549 24.8572V16.5714L14.4205 10.3572V6.21429L3.60549 0L0.000502928 2.07143V10.3572L3.60549 8.28572V4.14286L10.8155 8.28572L0 14.5V22.7852Z" fill="#DCDAE5"/>
<path d="M21.6309 6.21477L18.0254 4.14284L18.0254 12.4286L7.2104 18.6428L7.2104 22.7857L18.0254 29L21.6304 26.9286L21.6304 18.6428L18.0254 20.7143L18.0254 24.8571L10.8154 20.7143L21.6309 14.5L21.6309 6.21477Z" fill="#DCDAE5"/>
</svg>
