<svg width="24" height="14" viewBox="0 0 24 14" fill="currentColor" xmlns="http://www.w3.org/2000/svg">
<path d="M13.0767 7.00011C13.0767 10.5899 10.1643 13.5 6.57189 13.5C2.97949 13.5 0.0668945 10.5893 0.0668945 7.00011C0.0668945 3.41097 2.97927 0.5 6.57189 0.5C10.1645 0.5 13.0767 3.41031 13.0767 7.00011ZM20.2126 7.00011C20.2126 10.3791 18.7564 13.1195 16.9601 13.1195C15.1638 13.1195 13.7076 10.3791 13.7076 7.00011C13.7076 3.62109 15.1636 0.88076 16.9599 0.88076C18.7562 0.88076 20.2124 3.62021 20.2124 7.00011H20.2126ZM23.1314 7.00011C23.1314 10.0269 22.6193 12.4821 21.9875 12.4821C21.3557 12.4821 20.8438 10.0275 20.8438 7.00011C20.8438 3.97268 21.3559 1.51814 21.9875 1.51814C22.6191 1.51814 23.1314 3.97246 23.1314 7.00011" fill="#64557D"/>
</svg>
