<svg width="24" height="25" viewBox="0 0 24 25" fill="none" xmlns="http://www.w3.org/2000/svg">
<path fill-rule="evenodd" clip-rule="evenodd" d="M0 0.513672H24V24.5137H0V0.513672Z" stroke="#9398A8" stroke-width="0"/>
<path fill-rule="evenodd" clip-rule="evenodd" d="M12 2.51367C6.48 2.51367 2 6.99367 2 12.5137C2 18.0337 6.48 22.5137 12 22.5137C17.52 22.5137 22 18.0337 22 12.5137C22 6.99367 17.52 2.51367 12 2.51367ZM11 20.4437C7.05 19.9537 4 16.5937 4 12.5137C4 11.8937 4.08 11.3037 4.21 10.7237L9 15.5137V16.5137C9 17.6137 9.9 18.5137 11 18.5137V20.4437ZM17.9 17.9037C17.64 17.0937 16.9 16.5137 16 16.5137H15V13.5137C15 12.9637 14.55 12.5137 14 12.5137H8V10.5137H10C10.55 10.5137 11 10.0637 11 9.51367V7.51367H13C14.1 7.51367 15 6.61367 15 5.51367V5.10367C17.93 6.29367 20 9.16367 20 12.5137C20 14.5937 19.2 16.4837 17.9 17.9037Z" fill="#9398A8"/>
</svg>
