<svg width="24" height="25" viewBox="0 0 24 25" fill="none" xmlns="http://www.w3.org/2000/svg">
<path fill-rule="evenodd" clip-rule="evenodd" d="M0 0.513672H24V24.5137H0V0.513672Z" stroke="#9398A8" stroke-width="0"/>
<path fill-rule="evenodd" clip-rule="evenodd" d="M20 2.51367H8C6.9 2.51367 6 3.41367 6 4.51367V16.5137C6 17.6137 6.9 18.5137 8 18.5137H20C21.1 18.5137 22 17.6137 22 16.5137V4.51367C22 3.41367 21.1 2.51367 20 2.51367ZM11.5 10.0137C11.5 10.8437 10.83 11.5137 10 11.5137H9V13.5137H7.5V7.51367H10C10.83 7.51367 11.5 8.18367 11.5 9.01367V10.0137ZM16.5 12.0137C16.5 12.8437 15.83 13.5137 15 13.5137H12.5V7.51367H15C15.83 7.51367 16.5 8.18367 16.5 9.01367V12.0137ZM20.5 9.01367H19V10.0137H20.5V11.5137H19V13.5137H17.5V7.51367H20.5V9.01367ZM9 10.0137H10V9.01367H9V10.0137ZM4 6.51367H2V20.5137C2 21.6137 2.9 22.5137 4 22.5137H18V20.5137H4V6.51367ZM14 12.0137H15V9.01367H14V12.0137Z" fill="#9398A8"/>
</svg>
