<svg width="24" height="25" viewBox="0 0 24 25" fill="none" xmlns="http://www.w3.org/2000/svg">
<path fill-rule="evenodd" clip-rule="evenodd" d="M16.24 8.26C15.07 7.09 13.54 6.5 12 6.5V12.5L7.76 16.74C10.1 19.08 13.9 19.08 16.25 16.74C18.59 14.4 18.59 10.6 16.24 8.26ZM12 2.5C6.48 2.5 2 6.98 2 12.5C2 18.02 6.48 22.5 12 22.5C17.52 22.5 22 18.02 22 12.5C22 6.98 17.52 2.5 12 2.5ZM12 20.5C7.58 20.5 4 16.92 4 12.5C4 8.08 7.58 4.5 12 4.5C16.42 4.5 20 8.08 20 12.5C20 16.92 16.42 20.5 12 20.5Z" fill="#A258A7"/>
</svg>
