<svg width="42" height="42" viewBox="0 0 42 42" fill="none" xmlns="http://www.w3.org/2000/svg">
<path d="M20.9372 31.7349L10.8286 25.9585L14.1804 24.0432L12.5244 23.1042L7.52942 25.9585L20.9372 33.6201L34.345 25.9585L29.35 23.1042L27.694 24.0432L31.0459 25.9585L20.9372 31.7349Z" fill="#98979B"/>
<path fill-rule="evenodd" clip-rule="evenodd" d="M23.6099 12.6064L23.6986 12.4845L23.7001 12.4831L26.8524 8.18414L30.0948 12.6064C30.5414 13.2192 30.8153 13.9407 30.8878 14.6956C30.9602 15.4504 30.8285 16.2109 30.5066 16.8974C30.2146 17.5493 29.7506 18.1094 29.1643 18.5175C28.5781 18.9256 27.8918 19.1664 27.179 19.2139C26.9613 19.2286 26.7427 19.2286 26.5249 19.2139C25.8123 19.1662 25.1262 18.9254 24.5401 18.5173C23.954 18.1092 23.4901 17.5492 23.1981 16.8974C22.8761 16.2109 22.7443 15.4505 22.8166 14.6957C22.8889 13.9408 23.1627 13.2193 23.6092 12.6064H23.6099ZM26.8522 18.6701C26.7599 18.6701 26.6683 18.6665 26.5781 18.6607C25.6543 18.5877 24.7939 18.1624 24.1747 17.4729C23.5555 16.7834 23.2249 15.8824 23.2513 14.956C23.2545 14.7669 23.3319 14.5866 23.4668 14.454C23.6017 14.3214 23.7833 14.2471 23.9725 14.2471H23.984C24.0788 14.2486 24.1724 14.2688 24.2593 14.3065C24.3463 14.3442 24.425 14.3986 24.4909 14.4667C24.5568 14.5349 24.6086 14.6153 24.6434 14.7035C24.6782 14.7916 24.6953 14.8858 24.6937 14.9806C24.6747 15.5365 24.8693 16.0786 25.2377 16.4955C25.606 16.9124 26.12 17.1723 26.674 17.222C26.7317 17.2256 26.7923 17.2278 26.8522 17.2278C27.0434 17.2278 27.2269 17.3037 27.3621 17.439C27.4974 17.5742 27.5733 17.7577 27.5733 17.9489C27.5733 18.1402 27.4974 18.3236 27.3621 18.4589C27.2269 18.5941 27.0434 18.6701 26.8522 18.6701Z" fill="#F9F6F9"/>
<path fill-rule="evenodd" clip-rule="evenodd" d="M15.8443 15.7847L20.3617 9.6265L22.2029 12.1376C21.7107 12.9368 21.4245 13.8455 21.3699 14.7824C21.3152 15.7194 21.4939 16.6552 21.8899 17.5061C22.2498 18.3021 22.799 18.9979 23.4897 19.5328C24.1803 20.0677 24.9914 20.4254 25.8521 20.5747C25.6129 21.757 24.9926 22.8281 24.0862 23.6239C23.1798 24.4197 22.0374 24.8963 20.8341 24.9804C20.5233 24.9948 20.1836 24.9934 19.906 24.9811C18.9131 24.9141 17.9573 24.5782 17.1408 24.0095C16.3242 23.4407 15.6779 22.6605 15.2709 21.7524C14.8239 20.7975 14.6413 19.7401 14.7422 18.6905C14.843 17.641 15.2236 16.6377 15.8443 15.7854V15.7847ZM20.3616 23.7739C20.244 23.7739 20.1272 23.7689 20.0118 23.7616C18.8419 23.6684 17.7525 23.1292 16.9688 22.2556C16.1851 21.3819 15.767 20.2406 15.8008 19.0675C15.8038 18.8782 15.8812 18.6977 16.0161 18.565C16.151 18.4322 16.3327 18.3578 16.522 18.3578H16.5335C16.6282 18.3594 16.7217 18.3795 16.8087 18.4171C16.8956 18.4548 16.9742 18.5092 17.0401 18.5772C17.106 18.6453 17.1579 18.7256 17.1927 18.8137C17.2276 18.9018 17.2447 18.9959 17.2432 19.0906C17.2168 19.8934 17.4991 20.6759 18.0319 21.2771C18.5646 21.8783 19.3075 22.2525 20.1077 22.3229C20.1918 22.3287 20.2765 22.3315 20.3616 22.3315C20.5528 22.3315 20.7363 22.4075 20.8715 22.5428C21.0068 22.678 21.0827 22.8615 21.0827 23.0527C21.0827 23.244 21.0068 23.4274 20.8715 23.5627C20.7363 23.6979 20.5528 23.7739 20.3616 23.7739Z" fill="#F9F6F9"/>
</svg>
