<svg xmlns="http://www.w3.org/2000/svg" viewBox="0 0 26.816 25.436"><defs><style>.a{fill:#98979b;}.b{fill:#f9f6f9;fill-rule:evenodd;}</style></defs><path class="a" d="M16,27.706,5.892,21.929l3.352-1.915-1.656-.939L2.593,21.929,16,29.591l13.408-7.662-4.995-2.854-1.656.939,3.351,1.915Z" transform="translate(-2.593 -4.155)"/><path class="b" d="M18.673,8.577l.089-.122h0l3.152-4.3,3.242,4.422a4.234,4.234,0,0,1,.412,4.291,3.934,3.934,0,0,1-3.327,2.317,4.773,4.773,0,0,1-.655,0,3.935,3.935,0,0,1-3.326-2.317,4.231,4.231,0,0,1,.411-4.291Zm3.243,6.064c-.093,0-.184,0-.274-.009a3.613,3.613,0,0,1-3.327-3.7.721.721,0,0,1,.721-.709h.012a.746.746,0,0,1,.275.059.72.72,0,0,1,.434.675,2.177,2.177,0,0,0,1.981,2.241c.057,0,.118.006.178.006a.721.721,0,1,1,0,1.442Z" transform="translate(-2.593 -4.155)"/><path class="b" d="M10.908,11.756,15.425,5.6l1.841,2.512a5.672,5.672,0,0,0-.313,5.368,5.353,5.353,0,0,0,3.963,3.069A5.511,5.511,0,0,1,15.9,20.951c-.311.015-.651.013-.928,0a5.486,5.486,0,0,1-4.636-3.229,5.9,5.9,0,0,1,.574-5.967Zm4.517,7.989c-.117,0-.234-.005-.35-.012a4.577,4.577,0,0,1-4.211-4.695.722.722,0,0,1,.722-.709H11.6a.7.7,0,0,1,.275.059.725.725,0,0,1,.435.674,3.14,3.14,0,0,0,2.864,3.232c.084.006.169.008.254.008a.722.722,0,1,1,0,1.443Z" transform="translate(-2.593 -4.155)"/></svg>