<svg width="1124" height="757" viewBox="0 0 1124 757" fill="none" xmlns="http://www.w3.org/2000/svg">
<path d="M837.07 166.984L885.603 194.717V83.7837L837.07 56.0503V166.984Z" stroke="#FF497A"/>
<path d="M667.685 461.402L716.218 489.135L764.751 461.402L716.218 433.668L667.685 461.402Z" stroke="#FF497A"/>
<path d="M861.631 405.616L910.164 433.349L958.698 405.616L910.164 377.883L861.631 405.616Z" stroke="#FF497A"/>
<path d="M958.698 461.083L1007.23 488.816L1055.77 461.083L1007.23 433.349L958.698 461.083Z" stroke="#FF497A"/>
<path d="M1055.76 516.55L1104.3 544.283L1152.83 516.55L1104.3 488.816L1055.76 516.55Z" stroke="#FF497A"/>
<path d="M667.685 350.531L716.218 378.264L764.751 350.531L716.218 322.798L667.685 350.531Z" stroke="#FF497A"/>
<path d="M764.751 405.998L813.285 433.731L861.818 405.998L813.285 378.264L764.751 405.998Z" stroke="#FF497A"/>
<path d="M861.818 461.464L910.352 489.198L958.885 461.464L910.352 433.731L861.818 461.464Z" stroke="#FF497A"/>
<path d="M754.071 728.295L802.604 756.029L802.604 700.562L754.071 728.295Z" stroke="#FF497A"/>
<path d="M850.88 617.348L802.346 589.615V700.548L850.88 672.815V617.348Z" stroke="#FF497A"/>
<path d="M692.95 406.449L450.283 267.782L401.75 295.515L644.417 434.182L692.95 406.449Z" stroke="#FF497A"/>
<path d="M487.147 562.409L438.614 534.676L390.08 562.409L438.614 590.143L487.147 562.409Z" stroke="#FF497A"/>
<path d="M293.2 618.195L244.667 590.461L196.133 618.195L244.667 645.928L293.2 618.195Z" stroke="#FF497A"/>
<path d="M196.133 562.728L147.599 534.995L99.066 562.728L147.599 590.461L196.133 562.728Z" stroke="#FF497A"/>
<path d="M99.0664 507.261L50.533 479.528L1.99961 507.261L50.533 534.995L99.0664 507.261Z" stroke="#FF497A"/>
<path d="M487.147 673.28L438.614 645.546L390.08 673.28L438.614 701.013L487.147 673.28Z" stroke="#FF497A"/>
<path d="M390.08 617.813L341.547 590.08L293.013 617.813L341.547 645.546L390.08 617.813Z" stroke="#FF497A"/>
<path d="M293.013 562.346L244.48 534.613L195.946 562.346L244.48 590.08L293.013 562.346Z" stroke="#FF497A"/>
<path d="M461.882 617.362L704.549 756.029L753.082 728.295L510.415 589.628L461.882 617.362Z" stroke="#FF497A"/>
<path d="M885.604 28.7334L837.07 1L837.07 56.4667L885.604 28.7334Z" stroke="#FF497A"/>
<path d="M51.1224 479.715L99.6558 507.448L99.6558 396.515L51.1224 424.248L51.1224 479.715Z" stroke="#FF497A"/>
</svg>
