<svg width="169" height="33" viewBox="0 0 169 33" fill="none" xmlns="http://www.w3.org/2000/svg">
<path d="M42.8725 9.28756H37.053V23.5812H40.1159V18.7826H42.8725C43.8935 18.7826 44.7919 18.5988 45.5679 18.2109C46.3438 17.8229 46.9564 17.2716 47.3852 16.5569C47.814 15.8422 48.0386 15.005 48.0386 14.0453C48.0386 13.106 47.814 12.2688 47.3852 11.5337C46.9564 10.819 46.3438 10.2677 45.5679 9.87973C44.7919 9.49176 43.8935 9.28756 42.8725 9.28756ZM40.1159 16.2302V11.84H42.5866C43.3013 11.84 43.8731 12.0442 44.3019 12.4322C44.7103 12.8405 44.9349 13.3715 44.9349 14.0453C44.9349 14.7191 44.7103 15.25 44.3019 15.638C43.8731 16.0464 43.3013 16.2302 42.5866 16.2302H40.1159Z" fill="white"/>
<path d="M55.922 13.0856H55.4319C54.656 13.0856 54.023 13.2285 53.5737 13.494C53.1041 13.7594 52.7161 14.1474 52.4098 14.6579L52.1444 13.0856H49.5307V23.5812H52.4098V18.4355C52.4098 17.5983 52.5936 16.9244 52.9816 16.4344C53.3491 15.9443 53.9617 15.6993 54.7785 15.6993H55.922V13.0856Z" fill="white"/>
<path d="M59.842 9.18547C59.5153 8.87918 59.1273 8.71582 58.6577 8.71582C58.1676 8.71582 57.7797 8.87918 57.4529 9.18547C57.1262 9.49176 56.9833 9.87973 56.9833 10.329C56.9833 10.7986 57.1262 11.1866 57.4529 11.4929C57.7797 11.8196 58.1676 11.9625 58.6577 11.9625C59.1273 11.9625 59.5153 11.8196 59.842 11.4929C60.1483 11.1866 60.3117 10.7986 60.3117 10.329C60.3117 9.87973 60.1483 9.49176 59.842 9.18547ZM57.2079 13.0856V23.5812H60.0871V13.0856H57.2079Z" fill="white"/>
<path d="M77.4693 14.0861C76.7546 13.351 75.8357 12.9631 74.7126 12.9631C73.9163 12.9631 73.2016 13.1264 72.589 13.4327C71.9764 13.739 71.4659 14.1678 71.0984 14.7396C70.5062 13.5552 69.4648 12.9631 67.9742 12.9631C67.2391 12.9835 66.6265 13.106 66.1365 13.351C65.6464 13.5961 65.2176 13.9432 64.8705 14.3924L64.605 13.0856H62.0934V23.6016H64.9726V17.8637C64.9726 17.0878 65.1563 16.4752 65.5239 16.026C65.8914 15.5767 66.4019 15.3317 67.0349 15.3317C68.2601 15.3317 68.8727 16.1281 68.8727 17.7208V23.6016H71.7518V17.8433C71.7518 17.0674 71.9356 16.4548 72.3236 16.0056C72.6911 15.5563 73.2016 15.3317 73.8346 15.3317C75.0393 15.3317 75.6519 16.1281 75.6519 17.7208V23.6016H78.5311V17.8229C78.5311 16.0872 78.1635 14.8416 77.4693 14.0861Z" fill="white"/>
<path d="M80.5843 15.5155C80.1351 16.3323 79.9309 17.2716 79.9309 18.3538C79.9309 19.436 80.1555 20.3753 80.6048 21.1921C81.054 22.0089 81.7074 22.6215 82.565 23.0503C83.4226 23.4995 84.4232 23.7037 85.6075 23.7037C86.506 23.7037 87.3023 23.5607 87.9966 23.234C88.6908 22.9073 89.2422 22.4785 89.671 21.9068C90.0794 21.3554 90.3448 20.7224 90.4673 20.0282H87.629C87.5065 20.5182 87.2411 20.9062 86.8531 21.1513C86.4651 21.3963 85.9751 21.5188 85.4033 21.5188C84.6682 21.5188 84.0761 21.3146 83.6677 20.8654C83.2389 20.4366 82.9938 19.8444 82.9326 19.0685V18.9868H90.549C90.5899 18.7009 90.6307 18.3742 90.6307 18.0067C90.6103 16.9857 90.3652 16.1077 89.916 15.3521C89.4668 14.5966 88.8338 14.0045 88.017 13.5961C87.2002 13.1877 86.2814 12.9631 85.2195 12.9631C84.1577 12.9631 83.2389 13.1877 82.4425 13.6369C81.6461 14.0861 81.0336 14.6987 80.5843 15.5155ZM87.7516 17.1082H82.9938C83.0755 16.4956 83.3205 16.026 83.7493 15.6584C84.1782 15.2909 84.7091 15.1071 85.3421 15.1071C85.9955 15.1071 86.5264 15.2909 86.9552 15.638C87.384 15.9851 87.6495 16.4752 87.7516 17.1082Z" fill="white"/>
<path d="M92.5921 23.5812H100.882V21.9476H94.3686V9.28756H92.5921V23.5812Z" fill="white"/>
<path d="M101.777 23.5812H103.615L105.126 19.7219H111.354L112.865 23.5812H114.764L109.333 9.28756H107.229L101.777 23.5812ZM105.657 18.1088L108.23 11.2274L110.823 18.1088H105.657Z" fill="white"/>
<path d="M117.319 9.28756H115.542V17.4758C115.542 19.5177 115.991 21.0696 116.91 22.1314C117.829 23.1932 119.177 23.7037 120.974 23.7037C122.75 23.7037 124.098 23.1932 125.037 22.1314C125.976 21.0696 126.446 19.5177 126.446 17.4758V9.28756H124.67V17.5779C124.67 20.5795 123.424 22.0701 120.974 22.0701C118.523 22.0701 117.319 20.5795 117.319 17.5779V9.28756Z" fill="white"/>
<path d="M129.144 23.5812H130.879V12.5547L138.557 23.5812H140.191V9.28756H138.455V20.3141L130.777 9.28756H129.144V23.5812Z" fill="white"/>
<path d="M143.269 12.6364C142.697 13.739 142.432 15.005 142.432 16.4344C142.432 17.8841 142.697 19.1501 143.269 20.2528C143.82 21.3554 144.617 22.1926 145.658 22.8052C146.679 23.4178 147.884 23.7037 149.252 23.7037C150.845 23.7037 152.151 23.2749 153.213 22.4173C154.275 21.5596 154.928 20.3957 155.214 18.9051H153.438C153.152 19.9261 152.662 20.702 151.927 21.2533C151.192 21.8047 150.273 22.0701 149.17 22.0701C148.19 22.0701 147.312 21.8455 146.577 21.3554C145.821 20.8858 145.25 20.212 144.841 19.3543C144.433 18.4967 144.249 17.537 144.249 16.4344C144.249 15.3317 144.433 14.372 144.841 13.5144C145.25 12.6568 145.821 12.0033 146.577 11.5133C147.312 11.0436 148.19 10.7986 149.17 10.7986C150.252 10.7986 151.171 11.0845 151.927 11.6358C152.682 12.2075 153.193 12.9835 153.458 13.9636H155.235C154.949 12.4934 154.275 11.3091 153.213 10.4515C152.151 9.59386 150.824 9.16505 149.252 9.16505C147.884 9.16505 146.679 9.47134 145.658 10.0839C144.617 10.6965 143.82 11.5337 143.269 12.6364Z" fill="white"/>
<path d="M157.46 9.26715V23.5812H159.236V17.1286H166.628V23.5812H168.404V9.26715H166.628V15.4951H159.236V9.26715H157.46Z" fill="white"/>
<path d="M20.6255 23.5716L0.000488281 11.7859L4.12549 9.42871L24.7505 21.2144L20.6255 23.5716Z" fill="#EBA7DA"/>
<path d="M0 25.928L4.12558 28.2857V18.8572L16.5006 11.7857V7.07143L4.12558 0L0.000575475 2.35714V11.7857L4.12558 9.42858V4.71429L12.3756 9.42858L0 16.5V25.928Z" fill="white"/>
<path d="M24.7512 7.07199L20.6256 4.71427L20.6256 14.1428L8.25064 21.2143L8.25064 25.9286L20.6256 33L24.7506 30.6429L24.7506 21.2143L20.6256 23.5714L20.6256 28.2857L12.3756 23.5714L24.7512 16.5L24.7512 7.07199Z" fill="white"/>
</svg>
