<svg width="1201" height="447" viewBox="0 0 1201 447" fill="none" xmlns="http://www.w3.org/2000/svg">
<path d="M425.567 168.476H380.922V278.13H404.42V241.317H425.567C433.4 241.317 440.292 239.907 446.245 236.931C452.197 233.955 456.897 229.725 460.186 224.243C463.476 218.76 465.199 212.337 465.199 204.975C465.199 197.769 463.476 191.346 460.186 185.707C456.897 180.224 452.197 175.995 446.245 173.019C440.292 170.042 433.4 168.476 425.567 168.476ZM404.42 221.736V188.057H423.374C428.857 188.057 433.243 189.623 436.532 192.6C439.665 195.733 441.389 199.805 441.389 204.975C441.389 210.144 439.665 214.217 436.532 217.193C433.243 220.326 428.857 221.736 423.374 221.736H404.42Z" fill="white"/>
<path d="M525.676 197.612H521.917C515.964 197.612 511.108 198.709 507.662 200.745C504.059 202.782 501.083 205.758 498.733 209.674L496.696 197.612H476.645V278.13H498.733V238.654C498.733 232.232 500.143 227.062 503.119 223.303C505.939 219.543 510.638 217.663 516.904 217.663H525.676V197.612Z" fill="white"/>
<path d="M555.749 167.693C553.243 165.343 550.266 164.09 546.664 164.09C542.904 164.09 539.928 165.343 537.421 167.693C534.915 170.042 533.818 173.019 533.818 176.465C533.818 180.068 534.915 183.044 537.421 185.394C539.928 187.9 542.904 188.997 546.664 188.997C550.266 188.997 553.243 187.9 555.749 185.394C558.099 183.044 559.352 180.068 559.352 176.465C559.352 173.019 558.099 170.042 555.749 167.693ZM535.542 197.612V278.13H557.629V197.612H535.542Z" fill="white"/>
<path d="M690.977 205.288C685.494 199.649 678.445 196.672 669.83 196.672C663.72 196.672 658.238 197.926 653.538 200.275C648.839 202.625 644.922 205.915 642.103 210.301C637.56 201.215 629.571 196.672 618.136 196.672C612.496 196.829 607.797 197.769 604.037 199.649C600.278 201.529 596.988 204.192 594.325 207.638L592.289 197.612H573.021V278.286H595.108V234.268C595.108 228.315 596.518 223.616 599.338 220.17C602.157 216.723 606.074 214.844 610.93 214.844C620.329 214.844 625.028 220.953 625.028 233.172V278.286H647.116V234.111C647.116 228.159 648.525 223.459 651.502 220.013C654.321 216.567 658.238 214.844 663.094 214.844C672.336 214.844 677.035 220.953 677.035 233.172V278.286H699.123V233.955C699.123 220.64 696.303 211.084 690.977 205.288Z" fill="white"/>
<path d="M714.874 216.254C711.428 222.519 709.862 229.725 709.862 238.028C709.862 246.33 711.585 253.536 715.031 259.802C718.477 266.068 723.49 270.767 730.069 274.057C736.649 277.503 744.324 279.069 753.41 279.069C760.302 279.069 766.412 277.973 771.738 275.467C777.064 272.96 781.293 269.671 784.583 265.284C787.716 261.055 789.752 256.199 790.692 250.873H768.918C767.978 254.632 765.942 257.609 762.965 259.488C759.989 261.368 756.23 262.308 751.843 262.308C746.204 262.308 741.661 260.742 738.528 257.295C735.239 254.006 733.359 249.463 732.889 243.51V242.884H791.319C791.632 240.691 791.945 238.184 791.945 235.365C791.789 227.532 789.909 220.796 786.463 215C783.016 209.204 778.16 204.662 771.894 201.529C765.628 198.396 758.579 196.672 750.434 196.672C742.288 196.672 735.239 198.396 729.129 201.842C723.02 205.288 718.321 209.988 714.874 216.254ZM769.858 228.472H733.359C733.986 223.773 735.865 220.17 739.155 217.35C742.445 214.53 746.517 213.121 751.373 213.121C756.386 213.121 760.459 214.53 763.749 217.193C767.038 219.856 769.075 223.616 769.858 228.472Z" fill="white"/>
<path d="M806.992 168.476V278.13H839.418C850.697 278.13 860.409 275.937 868.712 271.394C877.014 266.851 883.437 260.428 887.823 252.126C892.209 243.824 894.559 234.268 894.559 223.303C894.559 212.337 892.209 202.782 887.823 194.479C883.437 186.334 877.014 179.911 868.712 175.368C860.409 170.825 850.697 168.476 839.418 168.476H806.992ZM839.418 265.598H820.621V181.008H839.418C852.577 181.008 862.602 184.924 869.808 192.443C877.014 199.962 880.617 210.301 880.617 223.303C880.617 236.304 877.014 246.643 869.808 254.162C862.602 261.838 852.42 265.598 839.418 265.598Z" fill="white"/>
<path d="M898.11 278.13H912.208L923.8 248.523H971.578L983.17 278.13H997.738L956.07 168.476H939.935L898.11 278.13ZM927.873 236.148L947.611 183.357L967.505 236.148H927.873Z" fill="white"/>
<path d="M1099.24 251.969C1103.62 243.51 1105.97 233.955 1105.97 223.303C1105.97 212.651 1103.62 203.095 1099.24 194.636C1094.85 186.177 1088.58 179.598 1080.75 174.742C1072.76 170.042 1063.68 167.536 1053.65 167.536C1043.47 167.536 1034.38 170.042 1026.55 174.742C1018.56 179.598 1012.3 186.177 1007.91 194.636C1003.52 203.095 1001.33 212.651 1001.33 223.303C1001.33 233.955 1003.52 243.51 1007.91 251.969C1012.3 260.428 1018.56 267.164 1026.55 271.864C1034.38 276.72 1043.47 279.069 1053.65 279.069C1063.68 279.069 1072.76 276.72 1080.75 271.864C1088.58 267.164 1094.85 260.428 1099.24 251.969ZM1020.13 245.703C1016.84 239.124 1015.27 231.762 1015.27 223.303C1015.27 215 1016.84 207.638 1020.13 201.059C1023.26 194.479 1027.8 189.467 1033.6 185.707C1039.4 181.948 1046.13 180.068 1053.65 180.068C1061.17 180.068 1067.75 181.948 1073.55 185.707C1079.34 189.467 1083.88 194.479 1087.17 201.059C1090.31 207.638 1092.03 215 1092.03 223.303C1092.03 231.762 1090.31 239.124 1087.17 245.703C1083.88 252.283 1079.34 257.295 1073.55 261.055C1067.75 264.814 1061.17 266.538 1053.65 266.538C1046.13 266.538 1039.4 264.814 1033.6 261.055C1027.8 257.295 1023.26 252.283 1020.13 245.703Z" fill="white"/>
<path d="M254.264 277.509L95.9551 187.046L127.617 168.954L285.926 259.416L254.264 277.509Z" fill="#EBA7DA"/>
<path d="M95.9507 295.597L127.617 313.694V241.324L222.603 187.046V150.861L127.617 96.5837L95.9551 114.676V187.046L127.617 168.954V132.769L190.941 168.954L95.9507 223.231V295.597Z" fill="white"/>
<path d="M285.931 150.865L254.265 132.768L254.265 205.138L159.279 259.416L159.279 295.601L254.265 349.878L285.927 331.786L285.927 259.416L254.265 277.508L254.265 313.693L190.941 277.508L285.931 223.231L285.931 150.865Z" fill="white"/>
</svg>
