<svg width="186" height="48" viewBox="0 0 186 48" fill="none" xmlns="http://www.w3.org/2000/svg">
<path d="M20.2792 27.1599C19.9111 27.4175 19.5799 27.7488 19.4326 28.1905C19.0277 29.2211 20.0584 31.7977 20.0584 31.7977C20.0584 31.7977 22.7085 30.4358 23.1134 29.4051C23.2975 29.0002 23.2975 28.5217 23.187 28.1169" fill="#F9F6F9"/>
<path fill-rule="evenodd" clip-rule="evenodd" d="M28.6668 17.1034L28.8458 16.5129C29.7065 13.8553 29.4986 11.0596 28.2262 8.60421C28.1891 8.56771 28.1887 8.53091 28.1516 8.49441C28.1145 8.45792 28.0777 8.45824 28.0406 8.42174L27.8934 8.423C27.8565 8.42331 27.8197 8.42363 27.7464 8.46106C26.5372 9.09714 25.477 9.95279 24.5656 10.9912C23.6911 12.0294 23.0018 13.2131 22.6082 14.5416L22.3927 15.1692L21.2284 18.9363C21.1139 19.307 20.7199 19.5139 20.3497 19.3979C19.9805 19.2823 19.775 18.8892 19.8907 18.52L20.4972 16.5841L15.9458 18.8683C15.8725 18.9058 15.7996 18.98 15.8002 19.0536L15.1556 21.1572C15.1562 21.2309 15.1571 21.3413 15.1946 21.4146C15.232 21.4879 15.3062 21.5609 15.417 21.5967L19.2187 22.8158L18.7887 24.1814C18.7525 24.2553 18.7534 24.3658 18.8277 24.4388C18.8651 24.5121 18.9394 24.585 19.0501 24.6209L26.0631 26.8801C26.137 26.9162 26.2475 26.9153 26.3205 26.841C26.3938 26.8036 26.4667 26.7294 26.5026 26.6186L26.9327 25.253L30.6608 26.4727C30.7347 26.5089 30.8451 26.508 30.9181 26.4337C30.9914 26.3963 31.0644 26.3221 31.1003 26.2113L31.7458 24.2181C31.782 24.1442 31.7811 24.0338 31.7436 23.9605L29.4226 19.3806L28.817 21.3137C28.7008 21.6844 28.3061 21.8908 27.9353 21.7747C27.5642 21.6584 27.3579 21.2631 27.4746 20.8922L28.6668 17.1034ZM27.132 14.0981C26.7951 13.4384 26.0199 13.1874 25.397 13.524C24.7741 13.8606 24.5231 14.6357 24.8229 15.2589C25.1598 15.9186 25.9349 16.1697 26.5578 15.8331C27.2175 15.4961 27.4686 14.721 27.132 14.0981Z" fill="#F9F6F9"/>
<path d="M24.3429 37.7366L12.977 31.2419L16.7457 29.0883L14.8838 28.0326L9.26758 31.2419L24.3429 39.8563L39.4181 31.2419L33.8019 28.0326L31.94 29.0883L35.7087 31.2419L24.3429 37.7366Z" fill="#EBA7DA"/>
<path d="M57.2565 18.6136H51.4885V32.7806H54.5243V28.0246H57.2565C58.2684 28.0246 59.1589 27.8424 59.928 27.4579C60.6971 27.0734 61.3042 26.5269 61.7292 25.8186C62.1542 25.1102 62.3769 24.2804 62.3769 23.3292C62.3769 22.3982 62.1542 21.5685 61.7292 20.8399C61.3042 20.1315 60.6971 19.5851 59.928 19.2005C59.1589 18.816 58.2684 18.6136 57.2565 18.6136ZM54.5243 25.4947V21.1434H56.9731C57.6815 21.1434 58.2482 21.3458 58.6732 21.7304C59.078 22.1351 59.3006 22.6613 59.3006 23.3292C59.3006 23.9971 59.078 24.5233 58.6732 24.9078C58.2482 25.3126 57.6815 25.4947 56.9731 25.4947H54.5243ZM70.1904 22.378H69.7047C68.9356 22.378 68.3082 22.5197 67.8629 22.7828C67.3975 23.0459 67.0129 23.4304 66.7093 23.9364L66.4462 22.378H63.8557V32.7806H66.7093V27.6805C66.7093 26.8507 66.8915 26.1829 67.276 25.6971C67.6403 25.2114 68.2475 24.9685 69.057 24.9685H70.1904V22.378ZM74.0757 18.5124C73.7519 18.2088 73.3674 18.0469 72.9019 18.0469C72.4162 18.0469 72.0316 18.2088 71.7078 18.5124C71.384 18.816 71.2423 19.2005 71.2423 19.6458C71.2423 20.1113 71.384 20.4958 71.7078 20.7994C72.0316 21.1232 72.4162 21.2649 72.9019 21.2649C73.3674 21.2649 73.7519 21.1232 74.0757 20.7994C74.3793 20.4958 74.5412 20.1113 74.5412 19.6458C74.5412 19.2005 74.3793 18.816 74.0757 18.5124ZM71.4649 22.378V32.7806H74.3186V22.378H71.4649ZM91.5469 23.3697C90.8385 22.6411 89.9278 22.2566 88.8146 22.2566C88.0253 22.2566 87.317 22.4185 86.7098 22.7221C86.1027 23.0256 85.5967 23.4506 85.2324 24.0173C84.6455 22.8435 83.6133 22.2566 82.1359 22.2566C81.4073 22.2768 80.8002 22.3982 80.3144 22.6411C79.8287 22.884 79.4037 23.228 79.0596 23.6733L78.7965 22.378H76.3072V32.8009H79.1608V27.1138C79.1608 26.3448 79.343 25.7376 79.7073 25.2924C80.0716 24.8471 80.5775 24.6042 81.2049 24.6042C82.4192 24.6042 83.0264 25.3935 83.0264 26.9722V32.8009H85.88V27.0936C85.88 26.3245 86.0622 25.7174 86.4467 25.2721C86.811 24.8269 87.317 24.6042 87.9444 24.6042C89.1385 24.6042 89.7456 25.3935 89.7456 26.9722V32.8009H92.5993V27.0734C92.5993 25.3531 92.235 24.1185 91.5469 23.3697ZM94.6343 24.7864C94.1891 25.5959 93.9867 26.5269 93.9867 27.5996C93.9867 28.6722 94.2093 29.6032 94.6546 30.4127C95.0998 31.2223 95.7475 31.8294 96.5975 32.2544C97.4475 32.6997 98.4392 32.9021 99.613 32.9021C100.504 32.9021 101.293 32.7604 101.981 32.4366C102.669 32.1128 103.216 31.6878 103.641 31.1211C104.045 30.5746 104.308 29.9472 104.43 29.2591H101.617C101.495 29.7448 101.232 30.1294 100.848 30.3722C100.463 30.6151 99.9773 30.7365 99.4107 30.7365C98.6821 30.7365 98.0951 30.5342 97.6904 30.0889C97.2654 29.6639 97.0225 29.077 96.9618 28.3079V28.227H104.511C104.551 27.9436 104.592 27.6198 104.592 27.2555C104.572 26.2436 104.329 25.3733 103.883 24.6245C103.438 23.8757 102.811 23.2887 102.001 22.884C101.192 22.4792 100.281 22.2566 99.2285 22.2566C98.1761 22.2566 97.2654 22.4792 96.4761 22.9244C95.6868 23.3697 95.0796 23.9768 94.6343 24.7864ZM101.738 26.365H97.0225C97.1035 25.7578 97.3463 25.2924 97.7713 24.9281C98.1963 24.5638 98.7225 24.3816 99.3499 24.3816C99.9976 24.3816 100.524 24.5638 100.949 24.9078C101.374 25.2519 101.637 25.7376 101.738 26.365ZM111.556 32.7806H119.773V31.1616H113.317V18.6136H111.556V32.7806ZM130.849 31.2627H130.343C129.878 31.2627 129.655 31.0199 129.655 30.5139V26.0614C129.655 24.8673 129.291 23.9566 128.562 23.309C127.833 22.6613 126.821 22.3375 125.506 22.3375C124.251 22.3375 123.239 22.6209 122.47 23.1875C121.701 23.7542 121.256 24.5435 121.134 25.5555H122.794C122.895 25.0293 123.179 24.6245 123.644 24.3007C124.11 23.9768 124.696 23.8149 125.425 23.8149C126.235 23.8149 126.862 24.0173 127.307 24.3816C127.752 24.7662 127.995 25.2924 127.995 25.9602V26.6686H124.96C123.604 26.6686 122.571 26.9519 121.863 27.4984C121.155 28.065 120.811 28.8544 120.811 29.8865C120.811 30.8175 121.155 31.5663 121.843 32.0925C122.531 32.639 123.462 32.9021 124.615 32.9021C126.113 32.9021 127.267 32.3354 128.076 31.1818C128.076 31.708 128.238 32.1128 128.522 32.3759C128.805 32.6592 129.27 32.7806 129.938 32.7806H130.849V31.2627ZM127.995 28.065V28.571C127.995 29.4615 127.692 30.1699 127.125 30.6961C126.538 31.2223 125.749 31.4854 124.737 31.4854C124.049 31.4854 123.502 31.3437 123.098 31.0199C122.693 30.7163 122.49 30.3115 122.49 29.7853C122.49 28.652 123.259 28.065 124.798 28.065H127.995ZM141.01 22.4589H139.35V27.6198C139.35 28.7936 139.067 29.7044 138.54 30.3722C138.014 31.0604 137.265 31.3842 136.334 31.3842C135.464 31.3842 134.796 31.1211 134.331 30.5544C133.865 29.9877 133.643 29.1782 133.643 28.1055V22.4589H131.983V28.2067C131.983 29.8258 132.347 31.0199 133.096 31.7687C133.825 32.5378 134.817 32.9021 136.051 32.9021C137.468 32.9021 138.561 32.4163 139.35 31.4044L139.573 32.7806H141.01V22.4589ZM151.347 23.4709C150.578 22.7221 149.586 22.3375 148.331 22.3375C146.834 22.3375 145.7 22.8435 144.931 23.8554L144.709 22.4589H143.272V32.7806H144.931V27.6198C144.931 26.4662 145.194 25.5555 145.761 24.8673C146.308 24.1995 147.077 23.8554 148.048 23.8554C148.939 23.8554 149.627 24.1388 150.112 24.7054C150.598 25.2721 150.841 26.0817 150.841 27.1341V32.7806H152.501V27.0329C152.501 25.4138 152.116 24.2399 151.347 23.4709ZM162.307 31.9306C163.096 31.283 163.602 30.3722 163.825 29.2186H162.166C162.004 29.9068 161.68 30.4532 161.174 30.8377C160.648 31.2425 160.02 31.4247 159.271 31.4247C158.28 31.4247 157.47 31.0806 156.863 30.3722C156.256 29.6639 155.952 28.7329 155.952 27.5996C155.952 26.4864 156.256 25.5757 156.863 24.8673C157.47 24.1792 158.28 23.8149 159.271 23.8149C160 23.8149 160.607 24.0173 161.133 24.4019C161.639 24.8066 161.983 25.3328 162.145 25.9805H163.825C163.623 24.8471 163.117 23.9566 162.327 23.309C161.538 22.6613 160.546 22.3375 159.332 22.3375C158.32 22.3375 157.45 22.5601 156.681 23.0054C155.912 23.4506 155.305 24.0578 154.88 24.8471C154.455 25.6566 154.252 26.5674 154.252 27.5996C154.252 28.652 154.455 29.5627 154.88 30.3722C155.284 31.1818 155.871 31.7889 156.64 32.2342C157.389 32.6794 158.259 32.9021 159.271 32.9021C160.486 32.9021 161.498 32.5783 162.307 31.9306ZM173.839 23.4709C173.07 22.7221 172.058 22.3375 170.803 22.3375C169.994 22.3375 169.306 22.5197 168.739 22.8435C168.172 23.1875 167.727 23.6328 167.403 24.159V18.6136H165.744V32.7806H167.403V27.6198C167.403 26.4662 167.666 25.5555 168.233 24.8673C168.8 24.1995 169.549 23.8554 170.52 23.8554C171.411 23.8554 172.119 24.1388 172.605 24.7054C173.09 25.2721 173.333 26.0817 173.333 27.1341V32.7806H174.993V27.0329C174.993 25.4138 174.608 24.2399 173.839 23.4709Z" fill="#F9F6F9"/>
</svg>
