<svg width="42" height="42" viewBox="0 0 42 42" fill="none" xmlns="http://www.w3.org/2000/svg">
<path d="M20.9372 33.0356L10.8286 27.2592L14.1804 25.3439L12.5244 24.4049L7.52942 27.2592L20.9372 34.9208L34.345 27.2592L29.35 24.4049L27.694 25.3439L31.0459 27.2592L20.9372 33.0356Z" fill="#98979B"/>
<path fill-rule="evenodd" clip-rule="evenodd" d="M30.0919 17.9131L20.3146 27.8456L14.7174 22.1595L16.7158 20.1924L20.3146 23.8483L28.0935 15.946L30.0919 17.9131Z" fill="#98979B"/>
<path fill-rule="evenodd" clip-rule="evenodd" d="M30.0919 9.63214L20.3146 19.5646L14.7174 13.8785L16.7158 11.9114L20.3146 15.5673L28.0935 7.66498L30.0919 9.63214Z" fill="#98979B"/>
<path fill-rule="evenodd" clip-rule="evenodd" d="M30.5548 17.9095L20.3146 28.3123L14.2545 22.1559L16.7194 19.7294L20.3146 23.3817L28.0899 15.483L30.5548 17.9095ZM28.0935 15.946L30.0919 17.9131L20.3146 27.8456L14.7174 22.1595L16.7158 20.1924L20.3146 23.8483L28.0935 15.946ZM30.5548 9.62849L20.3146 20.0312L14.2545 13.8749L16.7194 11.4484L20.3146 15.1007L28.0899 7.20203L30.5548 9.62849ZM20.3146 15.5673L16.7158 11.9114L14.7174 13.8785L20.3146 19.5646L30.0919 9.63214L28.0935 7.66498L20.3146 15.5673Z" fill="#98979B"/>
</svg>
