<svg xmlns="http://www.w3.org/2000/svg" viewBox="0 0 26.816 27.719"><defs><style>.a{fill:#98979b;}.b{fill:#f9f6f9;fill-rule:evenodd;}</style></defs><path class="a" d="M16,27.706,5.892,21.929l3.352-1.915-1.656-.939L2.593,21.929,16,29.591l13.408-7.662-4.995-2.854-1.656.939,3.351,1.915Z" transform="translate(-2.593 -1.872)"/><path class="b" d="M25.155,12.583l-9.777,9.933-5.6-5.686,2-1.967,3.6,3.656,7.779-7.9Z" transform="translate(-2.593 -1.872)"/><path class="b" d="M25.155,4.3l-9.777,9.933-5.6-5.686,2-1.967,3.6,3.656,7.779-7.9Z" transform="translate(-2.593 -1.872)"/><path class="b" d="M25.618,12.58l-10.24,10.4-6.06-6.157L11.783,14.4l3.6,3.652,7.775-7.9Zm-2.461-1.964,2,1.967-9.777,9.933-5.6-5.686,2-1.967,3.6,3.656ZM25.618,4.3,15.378,14.7,9.318,8.545l2.465-2.426,3.6,3.652,7.775-7.9Zm-10.24,5.939-3.6-3.656-2,1.967,5.6,5.686L25.155,4.3l-2-1.967Z" transform="translate(-2.593 -1.872)"/></svg>