<svg width="24" height="25" viewBox="0 0 24 25" fill="none" xmlns="http://www.w3.org/2000/svg">
<path fill-rule="evenodd" clip-rule="evenodd" d="M0 12.5137C0 19.1411 5.37258 24.5137 12 24.5137C18.6274 24.5137 24 19.1411 24 12.5137C24 5.88625 18.6274 0.513672 12 0.513672C5.37258 0.513672 0 5.88625 0 12.5137ZM9.8 18.0137L10.0042 14.9548L10.004 14.9547L15.5685 9.93317C15.8127 9.71643 15.5151 9.61074 15.1909 9.80733L8.32364 14.1398L5.35734 13.214C4.71675 13.0179 4.71215 12.5777 5.50116 12.2612L17.0602 7.8041C17.5881 7.56442 18.0976 7.9309 17.8961 8.73892L15.9276 18.0152C15.7901 18.6744 15.3918 18.8321 14.84 18.5276L11.8414 16.3121L10.4 17.7137C10.3955 17.7181 10.3909 17.7225 10.3864 17.7269C10.2252 17.8838 10.0919 18.0137 9.8 18.0137Z" fill="#9398A8"/>
</svg>
