<svg width="24" height="25" viewBox="0 0 24 25" fill="none" xmlns="http://www.w3.org/2000/svg">
<path fill-rule="evenodd" clip-rule="evenodd" d="M12 0.513672C5.37258 0.513672 0 5.88625 0 12.5137C0 19.1411 5.37258 24.5137 12 24.5137C18.6274 24.5137 24 19.1411 24 12.5137C24 5.88625 18.6274 0.513672 12 0.513672ZM11.6658 10.6826L11.6406 10.2674C11.5651 9.19122 12.2282 8.20823 13.2774 7.8269C13.6635 7.69132 14.3182 7.67437 14.7463 7.79301C14.9142 7.84385 15.2331 8.01333 15.4598 8.16586L15.8711 8.44551L16.3243 8.30145C16.5761 8.22518 16.9119 8.09807 17.063 8.01333C17.2057 7.93707 17.3316 7.8947 17.3316 7.92012C17.3316 8.06418 17.021 8.55567 16.7608 8.82684C16.4083 9.20817 16.509 9.24207 17.2224 8.98784C17.6505 8.84379 17.6589 8.84379 17.575 9.00479C17.5246 9.08953 17.2644 9.38612 16.9874 9.65729C16.5174 10.1234 16.4922 10.1742 16.4922 10.564C16.4922 11.1657 16.2068 12.4198 15.9214 13.1062C15.3926 14.3943 14.2595 15.7247 13.1263 16.3941C11.5315 17.3348 9.40786 17.572 7.61999 17.0212C7.02404 16.8348 6 16.3602 6 16.2755C6 16.2501 6.31057 16.2162 6.68829 16.2077C7.4773 16.1908 8.26631 15.9704 8.93781 15.5806L9.39108 15.3095L8.87066 15.1315C8.13201 14.8773 7.46891 14.2926 7.30103 13.7418C7.25067 13.5638 7.26746 13.5553 7.73751 13.5553L8.22434 13.5469L7.81305 13.352C7.32621 13.1062 6.88134 12.691 6.66311 12.2673C6.50362 11.9622 6.30218 11.1911 6.36093 11.1318C6.37772 11.1063 6.55399 11.1572 6.75544 11.225C7.33461 11.4368 7.41015 11.386 7.0744 11.0301C6.44487 10.3861 6.25181 9.42849 6.55399 8.52177L6.69668 8.11502L7.25067 8.66583C8.38383 9.77593 9.71843 10.4369 11.2461 10.6318L11.6658 10.6826Z" fill="#9398A8"/>
</svg>
